<svg version="1.1" id="Layer_1" xmlns="http://www.w3.org/2000/svg" xmlns:xlink="http://www.w3.org/1999/xlink" x="0px" y="0px"
	 width="100%" viewBox="0 0 1787 183" enable-background="new 0 0 1787 183" xml:space="preserve">
<path fill="none" opacity="1.000000" stroke="#FFFFFF" stroke-linecap="round" stroke-linejoin="round" stroke-width="4.000000"
	d="
M967.500000,97.000000 
	C953.925476,93.981621 940.303833,94.014671 926.486084,95.356750 
	C914.039490,96.565651 901.958862,98.880760 889.976746,102.421272 
	C865.841919,109.552673 844.778931,121.806694 826.497986,138.997879 
	C818.956909,146.089523 812.497925,154.086365 806.444092,162.459579 
	C804.751221,164.800964 804.019653,167.359390 803.552795,170.009293 
	C802.813904,174.203354 805.601746,177.568207 810.001404,177.985413 
	C823.339539,179.250168 836.302979,176.846954 848.979736,173.179962 
	C877.522339,164.923431 900.317444,147.614853 920.453003,126.455292 
	C927.881897,118.648582 934.612183,110.203751 941.051880,101.538551 
	C942.462036,99.640999 943.370483,97.845711 943.000000,95.500000 
"/>
<path fill="none" opacity="1.000000" stroke="#FFFFFF" stroke-linecap="round" stroke-linejoin="round" stroke-width="3.000000"
	d="
M294.500000,76.500000 
	C305.921234,70.763741 318.845795,69.565819 330.511169,64.525833 
	C343.253387,59.020565 355.187744,52.195190 362.346405,39.910492 
	C368.121033,30.000906 369.561340,19.336163 363.616333,8.436544 
	C361.316528,4.220013 356.719482,3.896008 354.020721,6.026234 
	C343.968842,13.960504 333.544434,21.499516 324.093323,30.102516 
	C303.393738,48.944542 285.895386,70.340584 273.924194,95.964592 
	C269.121521,106.244583 264.786682,116.654037 261.523773,127.507149 
	C260.710297,130.212967 259.148010,132.058807 256.500000,133.000000 
"/>
<path fill="none" opacity="1.000000" stroke="#FFFFFF" stroke-linecap="round" stroke-linejoin="round" stroke-width="3.000000"
	d="
M841.500000,76.500000 
	C852.921265,70.763741 865.845825,69.565811 877.511169,64.525826 
	C890.253357,59.020573 902.187805,52.195232 909.346497,39.910538 
	C915.121155,30.000957 916.561218,19.336239 910.616272,8.436590 
	C908.316406,4.220101 903.719482,3.895977 901.020691,6.026249 
	C890.968872,13.960545 880.544495,21.499590 871.093384,30.102558 
	C850.393738,48.944546 832.895447,70.340622 820.924255,95.964607 
	C816.121521,106.244606 811.786621,116.654022 808.523743,127.507141 
	C807.710266,130.212967 806.148010,132.058807 803.500000,133.000000 
"/>
<path fill="none" opacity="1.000000" stroke="#FFFFFF" stroke-linecap="round" stroke-linejoin="round" stroke-width="3.000000"
	d="
M461.500000,20.500000 
	C461.438934,23.348188 459.815186,25.027714 457.522705,26.534529 
	C431.617645,43.561623 404.905731,59.283615 378.490753,75.484947 
	C371.983032,79.476402 364.984283,82.914322 362.514252,91.004349 
	C361.465179,94.440353 360.882904,97.893364 361.977753,101.506737 
	C366.954315,117.931000 374.458008,133.107590 384.531891,146.976822 
	C389.436768,153.729614 396.602203,154.752808 404.022003,150.538712 
	C411.567596,146.253189 417.900146,140.443085 423.920776,134.420792 
	C438.002106,120.335403 451.666687,105.833351 465.500000,91.500015 
"/>
<path fill="none" opacity="1.000000" stroke="#FFFFFF" stroke-linecap="round" stroke-linejoin="round" stroke-width="3.000000"
	d="
M1261.000000,16.000000 
	C1255.604126,25.278137 1247.059204,30.747252 1238.069336,36.116077 
	C1214.364380,50.272934 1190.975220,64.960045 1167.512085,79.519524 
	C1157.990479,85.427895 1155.114746,92.918457 1158.558716,103.981705 
	C1163.689087,120.461861 1170.643677,136.086853 1182.540039,148.963028 
	C1186.971802,153.759857 1192.062256,154.414505 1197.991943,151.483658 
	C1205.152710,147.944336 1210.922119,142.558212 1216.480591,136.980713 
	C1228.543457,124.876633 1240.497437,112.664108 1252.502197,100.502136 
	C1254.820190,98.153702 1257.166626,95.833328 1259.500000,93.500000 
"/>
<path fill="none" opacity="1.000000" stroke="#FFFFFF" stroke-linecap="round" stroke-linejoin="round" stroke-width="3.000000"
	d="
M805.000000,38.500000 
	C801.721008,39.697453 800.686829,42.640888 799.492249,45.496750 
	C791.283264,65.121162 781.576416,83.985916 769.440491,101.458656 
	C751.441833,127.372391 728.631470,148.170746 700.938660,163.388382 
	C697.301086,165.387283 693.070862,167.868042 688.500000,165.000000 
"/>
<path fill="none" opacity="1.000000" stroke="#FFFFFF" stroke-linecap="round" stroke-linejoin="round" stroke-width="3.000000"
	d="
M258.000000,38.500000 
	C254.721008,39.697453 253.686813,42.640892 252.492218,45.496746 
	C244.283264,65.121155 234.576309,83.985840 222.440399,101.458603 
	C204.441727,127.372314 181.631546,148.170792 153.938690,163.388428 
	C150.301117,165.387314 146.070831,167.868042 141.500000,165.000000 
"/>
<path fill="none" opacity="1.000000" stroke="#FFFFFF" stroke-linecap="round" stroke-linejoin="round" stroke-width="3.000000"
	d="
M665.000000,21.500000 
	C665.731201,24.151880 663.797913,25.818735 662.452148,27.460793 
	C648.218689,44.828617 639.491577,64.912453 634.686096,86.541344 
	C631.234802,102.075035 629.491455,117.983345 629.472351,133.999969 
	C629.462402,142.333481 629.225403,150.668396 628.979919,158.999405 
	C628.808960,164.800476 625.974060,166.513580 620.493530,164.517731 
	C609.532349,160.525955 599.500427,154.961578 590.482910,147.520676 
	C582.721191,141.116028 577.701538,133.695572 579.959351,122.991432 
	C580.663391,119.653709 582.191101,116.888268 584.509521,114.509277 
	C587.470398,111.471115 590.500000,108.499985 593.500000,105.499985 
"/>
<path fill="none" opacity="1.000000" stroke="#FFFFFF" stroke-linecap="round" stroke-linejoin="round" stroke-width="4.000000"
	d="
M119.000000,95.500000 
	C119.113785,97.653450 118.975296,99.655014 117.525848,101.520088 
	C101.613251,121.995590 84.454453,141.154129 62.523884,155.536423 
	C48.163559,164.954071 32.823288,171.921631 15.996238,175.482224 
	C12.271923,176.270279 8.500001,176.833344 4.750001,177.500015 
"/>
<path fill="none" opacity="1.000000" stroke="#FFFFFF" stroke-linecap="round" stroke-linejoin="round" stroke-width="7.000000"
	d="
M535.000000,21.500000 
	C535.096985,23.339394 534.290588,24.792004 532.996338,25.996059 
	C521.367737,36.814140 515.734070,51.080498 510.544891,65.516144 
	C503.812500,84.245010 500.514923,103.695869 498.923920,123.493889 
	C498.587921,127.674873 498.652557,131.832733 498.490143,135.999619 
	C498.297577,140.939590 496.338348,142.285492 491.493744,141.540787 
	C482.295135,140.126755 473.422821,137.069016 464.003204,136.673874 
	C453.227509,136.221848 442.965240,137.931503 432.978577,141.946716 
	C429.129608,143.494217 428.691803,146.724045 428.000000,150.000000 
"/>
<path fill="none" opacity="1.000000" stroke="#FFFFFF" stroke-linecap="round" stroke-linejoin="round" stroke-width="8.000000"
	d="
M1097.000000,21.500000 
	C1097.096924,23.339394 1096.348633,24.865932 1094.987061,25.984230 
	C1085.033203,34.159164 1080.489258,45.738911 1075.527710,57.012188 
	C1067.878052,74.393341 1064.369385,92.914932 1061.693115,111.527771 
	C1060.660034,118.712875 1059.875610,126.116325 1060.447876,133.504028 
	C1060.547974,134.796158 1060.829712,136.148422 1060.046753,137.526550 
	C1058.336060,140.537476 1057.466919,143.227722 1052.426025,141.752945 
	C1045.967041,139.863297 1039.322144,138.244385 1032.514282,137.386749 
	C1020.875427,135.920502 1009.614990,136.687607 998.481262,140.444397 
	C993.665771,142.069214 989.994202,144.293076 990.000000,150.000000 
"/>
<path fill="none" opacity="1.000000" stroke="#FFFFFF" stroke-linecap="round" stroke-linejoin="round" stroke-width="8.000000"
	d="
M144.000000,97.000000 
	C130.262665,93.844200 116.471573,94.164619 102.487015,95.346306 
	C85.717522,96.763321 69.566032,100.410126 54.031281,106.578781 
	C36.146927,113.680412 19.600004,123.150703 5.481925,136.480850 
	C3.656419,138.204483 2.143604,140.040176 1.500000,142.500000 
"/>
<path fill="none" opacity="1.000000" stroke="#FFFFFF" stroke-linecap="round" stroke-linejoin="round" stroke-width="3.000000"
	d="
M464.750000,15.500000 
	C465.526367,18.688650 462.764954,20.186317 461.046112,19.796598 
	C456.374207,18.737309 452.347229,20.487146 448.546844,22.109703 
	C419.646301,34.448711 392.278473,49.357582 369.536469,71.537407 
	C363.507629,77.417236 357.871399,83.693047 353.447998,90.968384 
	C352.166138,93.076759 350.724457,95.503365 347.500000,95.000000 
"/>
<path fill="none" opacity="1.000000" stroke="#FFFFFF" stroke-linecap="round" stroke-linejoin="round" stroke-width="3.000000"
	d="
M1256.500000,20.500000 
	C1251.920410,18.134214 1247.983032,20.716183 1244.012817,22.282391 
	C1218.838989,32.213196 1195.635254,45.685959 1174.604980,62.630264 
	C1165.435181,70.018387 1157.167725,78.621582 1150.546143,88.530800 
	C1148.716187,91.269226 1147.015015,93.878677 1143.500000,94.500000 
"/>
<path fill="none" opacity="1.000000" stroke="#FFFFFF" stroke-linecap="round" stroke-linejoin="round" stroke-width="8.000000"
	d="
M412.500000,2.500000 
	C403.526306,10.235851 393.500397,16.624041 384.928680,24.926369 
	C369.659760,39.715397 358.529449,57.220325 351.715576,77.073982 
	C345.561249,95.005867 340.129425,113.253555 338.799713,132.486160 
	C338.281067,139.987930 338.195374,147.511841 337.528809,155.002563 
	C337.297699,157.599472 336.947937,160.452423 334.912750,161.875214 
	C332.074280,163.859619 331.386780,166.632080 330.500000,169.500000 
"/>
<path fill="none" opacity="1.000000" stroke="#FFFFFF" stroke-linecap="round" stroke-linejoin="round" stroke-width="8.000000"
	d="
M1207.500000,2.500000 
	C1204.507812,6.206111 1200.279907,8.297803 1196.539185,11.053139 
	C1172.192993,28.986340 1155.516724,52.599815 1145.558960,81.020645 
	C1144.050537,85.325653 1141.549561,89.567192 1142.962158,94.510826 
	C1143.081665,94.929062 1142.742798,95.542831 1142.488770,95.993660 
	C1136.624878,106.401505 1135.859741,118.058838 1134.598022,129.510803 
	C1133.685181,137.794159 1132.644165,146.111984 1132.983154,154.500687 
	C1133.111816,157.684219 1132.487915,160.387909 1129.600464,162.629410 
	C1127.686157,164.115341 1126.768311,166.853088 1126.500000,169.500000 
"/>
<path fill="none" opacity="1.000000" stroke="#FFFFFF" stroke-linecap="round" stroke-linejoin="round" stroke-width="8.000000"
	d="
M727.500000,14.750000 
	C724.907166,15.413499 721.871277,14.396621 719.862732,17.408482 
	C719.247131,18.331570 716.970642,18.548595 715.504944,18.435875 
	C707.947510,17.854683 700.520508,19.529043 693.000000,19.518276 
	C671.146973,19.486988 649.367798,21.801054 627.498962,21.640692 
	C624.238464,21.616783 620.828491,22.196497 617.510071,22.585859 
	C607.953308,23.707209 603.294861,29.293337 602.000916,40.500103 
	C601.320740,46.390556 601.175659,52.221565 602.949097,58.015579 
	C603.848999,60.955616 602.083252,63.681358 601.500000,66.500000 
"/>
<path fill="none" opacity="1.000000" stroke="#FFFFFF" stroke-linecap="round" stroke-linejoin="round" stroke-width="8.000000"
	d="
M264.500000,19.500000 
	C263.333344,22.000000 261.987823,24.434237 261.038971,27.014336 
	C259.311859,31.710546 258.268707,36.365925 259.893433,41.533504 
	C261.840088,47.724941 260.116486,54.202927 259.806061,60.490425 
	C259.452545,67.650200 259.266357,74.845093 258.719086,82.016716 
	C257.610168,96.548836 256.302216,111.042809 254.518677,125.502304 
	C254.376923,126.651482 254.089722,128.047363 254.568115,128.964462 
	C257.215027,134.038681 255.550583,138.995789 254.507812,144.001633 
	C253.913116,146.856430 255.187912,149.391846 256.000000,152.000000 
"/>
<path fill="none" opacity="1.000000" stroke="#FFFFFF" stroke-linecap="round" stroke-linejoin="round" stroke-width="8.000000"
	d="
M811.500000,19.500010 
	C810.333374,22.000010 808.987854,24.434235 808.038940,27.014332 
	C806.311829,31.710529 805.268616,36.365948 806.893372,41.533520 
	C808.840027,47.724953 807.116394,54.202919 806.806030,60.490421 
	C806.452515,67.650200 806.266296,74.845085 805.718994,82.016716 
	C804.610046,96.548828 803.302307,111.042816 801.518677,125.502304 
	C801.376953,126.651482 801.089661,128.047379 801.568054,128.964493 
	C804.214966,134.038712 802.550537,138.995789 801.507751,144.001617 
	C800.913086,146.856430 802.187927,149.391846 803.000000,152.000000 
"/>
<path fill="none" opacity="1.000000" stroke="#FFFFFF" stroke-linecap="round" stroke-linejoin="round" stroke-width="9.000000"
	d="
M585.500000,91.500000 
	C570.869324,106.536003 556.428467,121.775841 540.940613,135.935043 
	C532.433655,143.712189 522.192261,148.896927 510.963806,151.333176 
	C504.311249,152.776611 497.330688,151.400711 490.494171,151.214401 
	C474.435425,150.776779 458.608887,147.380737 442.498199,147.949371 
	C438.009949,148.107788 433.500000,149.447983 429.000000,148.000000 
"/>
<path fill="none" opacity="1.000000" stroke="#FFFFFF" stroke-linecap="round" stroke-linejoin="round" stroke-width="9.000000"
	d="
M1137.500000,105.500000 
	C1134.953247,105.345238 1132.944336,105.778778 1130.914062,107.918510 
	C1122.642578,116.636421 1114.520386,125.511581 1105.516846,133.518997 
	C1092.790039,144.838043 1078.559692,152.883041 1061.010010,151.833496 
	C1051.011963,151.235596 1040.976562,150.875214 1030.981567,149.650482 
	C1020.239624,148.334259 1009.403137,147.076141 998.490295,148.421112 
	C996.061401,148.720444 993.442261,149.033020 991.000000,148.000000 
"/>
<path fill="none" opacity="1.000000" stroke="#FFFFFF" stroke-linecap="round" stroke-linejoin="round" stroke-width="8.000000"
	d="
M1151.500000,15.000000 
	C1136.164307,18.198347 1120.555420,18.484497 1105.008789,19.620810 
	C1093.829834,20.437889 1082.616089,19.749090 1071.523193,20.755201 
	C1065.685181,21.284693 1059.811523,20.985123 1053.991089,21.946241 
	C1037.746582,24.628677 1029.279785,34.027008 1029.685181,49.995300 
	C1029.733887,51.917061 1027.802246,52.770866 1028.500000,54.500000 
"/>
<path fill="none" opacity="1.000000" stroke="#FFFFFF" stroke-linecap="round" stroke-linejoin="round" stroke-width="8.000000"
	d="
M588.500000,15.500000 
	C585.343811,15.866319 582.246399,17.200285 578.992004,16.022057 
	C578.549988,15.862012 577.906311,15.820835 577.513672,16.026169 
	C567.783447,21.114897 557.126648,17.602272 546.962646,19.272928 
	C534.639587,21.298475 521.968628,19.920687 509.517181,20.755966 
	C503.195190,21.180058 496.800720,20.934273 490.494781,21.968077 
	C480.018372,23.685568 469.876526,33.152496 467.954346,42.991081 
	C467.237213,46.661777 469.132751,50.444656 467.250000,54.000000 
"/>
<path fill="none" opacity="1.000000" stroke="#FFFFFF" stroke-linecap="round" stroke-linejoin="round" stroke-width="3.000000"
	d="
M1028.500000,90.500000 
	C1010.763123,109.113243 994.254150,128.867249 976.001709,147.001740 
	C972.634583,150.347046 969.230042,153.604156 964.000000,153.500000 
"/>
<path fill="none" opacity="1.000000" stroke="#FFFFFF" stroke-linecap="round" stroke-linejoin="round" stroke-width="3.000000"
	d="
M202.500000,93.500000 
	C191.000000,105.833328 179.383133,118.060509 168.045746,130.541550 
	C161.688095,137.540527 155.378708,144.522141 148.061722,150.574615 
	C145.577728,152.629303 143.058212,153.544098 140.000000,153.500000 
"/>
<path fill="none" opacity="1.000000" stroke="#FFFFFF" stroke-linecap="round" stroke-linejoin="round" stroke-width="4.000000"
	d="
M157.500000,41.000000 
	C155.079437,40.743519 153.478653,42.265018 152.556625,44.029591 
	C144.825272,58.825764 136.331985,73.157494 127.039154,87.026237 
	C125.778801,88.907211 124.814865,91.071243 125.000000,93.500000 
"/>
<path fill="none" opacity="1.000000" stroke="#FFFFFF" stroke-linecap="round" stroke-linejoin="round" stroke-width="4.000000"
	d="
M981.500000,41.000000 
	C978.112854,41.002121 976.872437,43.438942 975.463745,45.979893 
	C967.629639,60.110348 959.563599,74.107872 950.480103,87.486481 
	C949.222168,89.339249 948.270386,91.201241 948.500000,93.500000 
"/>
<path fill="none" opacity="1.000000" stroke="#FFFFFF" stroke-linecap="round" stroke-linejoin="round" stroke-width="7.000000"
	d="
M166.500000,16.500000 
	C161.585953,25.546700 159.256317,35.290874 158.469635,45.497658 
	C158.026047,51.252831 155.224411,56.415527 153.953949,61.989502 
	C151.744339,71.683807 148.708481,81.177094 146.931976,90.987686 
	C146.526840,93.224953 145.265747,95.307213 144.425934,97.392975 
	C146.500000,100.239265 148.500000,96.956635 150.500000,97.500000 
"/>
<path fill="none" opacity="1.000000" stroke="#FFFFFF" stroke-linecap="round" stroke-linejoin="round" stroke-width="7.000000"
	d="
M989.000000,18.000000 
	C985.603455,26.875967 983.002441,35.858196 982.300537,45.485455 
	C981.917847,50.733589 979.367554,55.799278 978.028748,61.007393 
	C975.553223,70.638161 973.364807,80.365227 970.744568,89.930023 
	C968.918396,96.596176 969.089050,103.436424 967.147461,110.043335 
	C965.296448,116.342232 963.978149,122.968590 963.679810,129.508209 
	C963.331665,137.139755 960.659058,144.871307 963.581116,152.468811 
	C964.185486,154.040253 962.481873,154.735504 963.000000,156.000000 
"/>
<path fill="none" opacity="1.000000" stroke="#FFFFFF" stroke-linecap="round" stroke-linejoin="round" stroke-width="8.000000"
	d="
M145.500000,99.000000 
	C144.167389,107.363464 141.874313,115.521461 140.801392,123.974792 
	C139.976425,130.474594 140.122375,137.101913 138.497894,143.499466 
	C137.426498,147.718918 140.794754,151.754883 139.000000,156.000000 
"/>
<path fill="none" opacity="1.000000" stroke="#FFFFFF" stroke-linecap="round" stroke-linejoin="round" stroke-width="3.000000"
	d="
M721.500000,15.500000 
	C720.236206,10.539957 715.745850,8.739249 711.930542,7.168749 
	C703.458496,3.681425 694.469543,0.992749 685.554504,5.605359 
	C680.911865,8.007469 676.833313,11.500007 672.500000,14.500007 
"/>
<path fill="none" opacity="1.000000" stroke="#FFFFFF" stroke-linecap="round" stroke-linejoin="round" stroke-width="3.000000"
	d="
M333.500000,124.500000 
	C331.810120,135.109436 329.930450,145.694275 329.972626,156.500107 
	C329.981537,158.781326 330.133148,160.900055 332.000000,162.500000 
"/>
<path fill="none" opacity="1.000000" stroke="#FFFFFF" stroke-linecap="round" stroke-linejoin="round" stroke-width="4.000000"
	d="
M1128.500000,126.500000 
	C1127.500000,133.166656 1125.949951,139.811325 1125.682251,146.507294 
	C1125.484619,151.447159 1123.913940,156.758606 1127.000000,161.500000 
"/>
<path fill="none" opacity="1.000000" stroke="#FFFFFF" stroke-linecap="round" stroke-linejoin="round" stroke-width="3.000000"
	d="
M1135.500000,13.000000 
	C1130.571167,10.699786 1125.501343,12.627462 1120.500000,12.500000 
"/>
<path fill="none" opacity="1.000000" stroke="#FFFFFF" stroke-linecap="round" stroke-linejoin="round" stroke-width="3.000000"
	d="
M573.500000,13.000000 
	C568.571106,10.699786 563.501282,12.627462 558.500000,12.500000 
"/>
<path fill="none" opacity="1.000000" stroke="#FFFFFF" stroke-linecap="round" stroke-linejoin="round" stroke-width="3.000000"
	d="
M990.000000,148.500000 
	C988.166687,148.666656 986.333313,148.833328 984.500000,149.000000 
"/>
<path fill="none" opacity="1.000000" stroke="#FFFFFF" stroke-linecap="round" stroke-linejoin="round" stroke-width="3.000000"
	d="
M428.000000,148.500000 
	C426.166656,148.500000 424.333344,148.500000 422.500000,148.500000 
"/>
</svg>