<?xml version="1.0" encoding="UTF-8"?>
<svg version="1.1" xmlns="http://www.w3.org/2000/svg" width="1920" height="1080">
<path d="M0 0 C1.16789062 -0.01546875 2.33578125 -0.0309375 3.5390625 -0.046875 C14.77661126 0.00295892 25.44185811 2.0910549 34.13671875 9.59375 C42.61476605 18.26730783 45.75172753 30.01968769 45.625 41.875 C45.62024658 42.9364624 45.61549316 43.9979248 45.6105957 45.09155273 C45.30403406 57.48437473 42.5250282 69.34866801 39.71337891 81.37353516 C38.81423628 85.31413079 38.07070933 89.26942136 37.375 93.25 C36.28091969 99.25457017 34.91861637 105.15824612 33.4777832 111.0859375 C32.31433896 115.95014226 31.37967865 120.8167696 30.5625 125.75 C29.49184138 132.17694031 28.10926283 138.48372499 26.5625 144.8125 C24.07812439 154.99039608 21.99409612 165.21642765 20 175.5 C17.27068033 189.54531635 14.36245696 203.52061917 11.09472656 217.45141602 C9.49535388 224.28514658 8.03781322 231.11977014 6.7109375 238.01171875 C5.89989645 241.99116743 4.95702895 245.92870494 4 249.875 C2.62602456 255.55732379 1.4667545 261.23463977 0.5 267 C-0.57015959 273.37639802 -1.91984781 279.63313451 -3.44921875 285.9140625 C-4.77719951 291.41713429 -5.91644693 296.94399921 -7 302.5 C-8.22207484 308.76628169 -9.55192062 314.98446723 -11.0625 321.1875 C-12.4243686 326.78622037 -13.5515126 332.37934478 -14.5 338.0625 C-15.54509847 344.32448329 -16.92099765 350.42270576 -18.52172852 356.56420898 C-19.84372904 361.69945498 -20.85574007 366.85627725 -21.78515625 372.07836914 C-22.84681468 377.92807884 -24.15696903 383.70910818 -25.5 389.5 C-26.98746614 395.91805963 -28.40113729 402.32713747 -29.5625 408.8125 C-30.6762012 414.98504735 -32.04397559 421.05331211 -33.51977539 427.14575195 C-34.66065341 431.90912192 -35.63460068 436.67942288 -36.5 441.5 C-37.61085957 447.67835069 -38.97207988 453.76303598 -40.44921875 459.86328125 C-41.77178266 465.38398365 -42.91240641 470.92861772 -44 476.5 C-45.22692608 482.78513657 -46.55540292 489.0260342 -48.0625 495.25 C-49.52713189 501.30005636 -50.75712541 507.35733971 -51.85571289 513.48364258 C-52.74307201 518.34532031 -53.83051878 523.13652966 -55 527.9375 C-56.35691972 533.51757041 -57.4992945 539.08478468 -58.4375 544.75 C-59.67240685 552.17851974 -61.37058189 559.45147344 -63.16162109 566.76367188 C-64.45156912 572.07144291 -65.60449098 577.37263617 -66.5625 582.75 C-67.54214795 588.21831736 -68.69254368 593.60376006 -70 599 C-71.48595091 605.13364799 -72.74187996 611.27150214 -73.85546875 617.48266602 C-74.74304286 622.34463954 -75.83033902 627.13622591 -77 631.9375 C-78.40287024 637.70191301 -79.57729329 643.46226124 -80.5625 649.3125 C-83.75638881 668.25638881 -83.75638881 668.25638881 -86 670.5 C-88.48426667 670.60034055 -90.94074952 670.63617942 -93.42553711 670.62939453 C-94.2027562 670.63114685 -94.97997528 670.63289917 -95.78074646 670.63470459 C-98.36296794 670.63912402 -100.94512151 670.63618452 -103.52734375 670.6328125 C-105.31474318 670.63348558 -107.10214251 670.63445564 -108.88954163 670.63571167 C-112.64145781 670.63718882 -116.39335024 670.63503379 -120.14526367 670.63037109 C-124.96200677 670.6246779 -129.7786941 670.6279501 -134.59543514 670.63394356 C-138.28850222 670.63755221 -141.98155602 670.63640911 -145.67462349 670.63381577 C-147.45089283 670.63314713 -149.22716337 670.63397273 -151.00343132 670.63629532 C-153.48400961 670.63882636 -155.96449687 670.63497465 -158.44506836 670.62939453 C-159.18436584 670.63141876 -159.92366333 670.63344299 -160.68536377 670.63552856 C-165.771473 670.6142635 -165.771473 670.6142635 -168 669.5 C-167.49121907 662.60206944 -166.34084911 656.13007074 -164.625 649.4375 C-163.03797881 643.02498491 -161.57752116 636.64313277 -160.5 630.125 C-158.28790876 616.88539858 -155.22013806 603.81524722 -152.2265625 590.734375 C-151.60876462 588.03138907 -150.99167283 585.32824281 -150.375 582.625 C-150.14549149 581.62021103 -150.14549149 581.62021103 -149.91134644 580.59512329 C-147.91310564 571.82630053 -146.13536195 563.06529872 -144.67578125 554.19140625 C-143.82864115 549.56396468 -142.66860193 545.05318455 -141.47753906 540.50488281 C-140.26791961 535.80234318 -139.35182212 531.10225016 -138.5625 526.3125 C-137.33576706 518.88318476 -135.63569146 511.61903738 -133.83837891 504.30908203 C-132.33151771 498.10308841 -131.13180263 491.90065459 -130.09375 485.6015625 C-129.17387506 480.15466255 -127.88100371 474.85890425 -126.48022461 469.51831055 C-125.24245625 464.7096248 -124.31177251 459.89739677 -123.5 455 C-122.57516708 449.42051346 -121.43488686 443.97063252 -120 438.5 C-118.59344568 433.13113543 -117.46501424 427.78847954 -116.5625 422.3125 C-115.33087001 414.86131154 -113.63476815 407.5699502 -111.83837891 400.23657227 C-110.54852336 394.92869503 -109.39559424 389.62743001 -108.4375 384.25 C-107.47585641 378.88532538 -106.35102435 373.60476371 -105.0625 368.3125 C-103.50574307 361.90730269 -102.19845289 355.48152492 -101 349 C-99.67073139 341.81099183 -98.1588095 334.70426364 -96.4296875 327.6015625 C-95.14448661 322.2684848 -94.11224069 316.91459702 -93.14428711 311.51611328 C-92.25683857 306.65454247 -91.16957474 301.86336246 -90 297.0625 C-88.61689949 291.37995875 -87.46112071 285.70620189 -86.5 279.9375 C-85.48660182 273.88254901 -84.16637371 267.98919343 -82.61450195 262.04443359 C-81.08954573 256.09078877 -79.87064653 250.09243783 -78.6875 244.0625 C-76.80530706 234.47927439 -74.85582258 224.91300751 -72.83413696 215.35836792 C-72.53261195 213.93271277 -72.23194574 212.50687567 -71.93222046 211.08084106 C-70.31323124 203.38234956 -68.57875926 195.73113748 -66.63427734 188.10766602 C-65.78782316 184.62769022 -65.19121095 181.16198009 -64.625 177.625 C-63.34573991 169.9731457 -61.66868938 162.44229004 -59.91113281 154.88769531 C-58.25482966 147.73196754 -56.78692218 140.55187093 -55.38134766 133.34326172 C-54.51875003 128.96168782 -53.57219704 124.63375555 -52.4375 120.3125 C-51.04269259 114.97323723 -50.10730164 109.58389009 -49.20166016 104.14575195 C-48.30021572 98.86375892 -47.11116328 93.69695572 -45.8125 88.5 C-44.39563767 82.71447883 -43.26786815 77.46164504 -44 71.5 C-47.35327639 69.26448241 -47.90743657 69.32716472 -51.6875 69.875 C-53.125 70.08333333 -54.5625 70.29166667 -56 70.5 C-58.20617809 78.35168611 -60.17430742 86.23918743 -62 94.1875 C-62.39517822 95.90042236 -62.39517822 95.90042236 -62.79833984 97.64794922 C-64.20004263 103.78745956 -65.52245796 109.92478514 -66.625 116.125 C-67.66758669 121.98188405 -69.02082919 127.68171336 -70.52001953 133.43212891 C-71.93237245 138.96148384 -72.92262607 144.51711868 -73.85546875 150.14428711 C-74.68087163 154.99963082 -75.75076672 159.73718811 -77 164.5 C-78.40655157 169.86885409 -79.53508949 175.21150895 -80.4375 180.6875 C-81.66423294 188.11681524 -83.36430854 195.38096262 -85.16162109 202.69091797 C-86.66848229 208.89691159 -87.86819737 215.09934541 -88.90625 221.3984375 C-89.7119411 226.16921516 -90.77453247 230.82052531 -92 235.5 C-93.39245237 240.82753056 -94.53119965 246.13111643 -95.4375 251.5625 C-97.68030203 264.90563593 -100.75587642 278.08004472 -103.7734375 291.265625 C-104.39127539 293.96860184 -105.00840632 296.67173907 -105.625 299.375 C-105.77800568 300.04519165 -105.93101135 300.7153833 -106.08865356 301.40588379 C-108.08157343 310.15653053 -109.86576654 318.89950414 -111.328125 327.75390625 C-112.18384132 332.52502224 -113.30379115 337.20943298 -114.44995117 341.91748047 C-115.77788302 347.41936217 -116.91667147 352.94515055 -118 358.5 C-119.22207652 364.76629028 -120.55208541 370.98442329 -122.0625 377.1875 C-123.41793818 382.76564945 -124.54977932 388.33886259 -125.5 394 C-126.45022828 399.66118269 -127.58263749 405.23419055 -128.9375 410.8125 C-130.40223246 416.8523469 -131.73131057 422.90308466 -132.9375 429 C-133.18318726 430.24064209 -133.18318726 430.24064209 -133.43383789 431.50634766 C-134.15071042 435.14415677 -134.86122799 438.78315099 -135.56591797 442.42333984 C-138.05252715 455.25391194 -140.77815895 467.97605493 -143.90527344 480.66650391 C-145.51902103 487.28412813 -146.8636895 493.88452086 -147.95751953 500.60571289 C-148.73676063 505.2966525 -149.79011133 509.84533289 -151 514.4375 C-152.46757337 520.01208327 -153.56312104 525.55287459 -154.4375 531.25 C-155.58070857 538.66640505 -157.27047537 545.84357538 -159.16162109 553.10180664 C-160.71194713 559.12935728 -161.89570953 565.14628859 -162.90844727 571.28417969 C-163.72967124 576.18053397 -164.76453441 580.98887527 -165.9375 585.8125 C-167.36256508 591.68653238 -168.65146815 597.56808252 -169.8125 603.5 C-173.55350149 622.55429484 -177.62033796 641.55393099 -181.875 660.5 C-182.07794678 661.41313965 -182.28089355 662.3262793 -182.48999023 663.26708984 C-183.88035152 669.38035152 -183.88035152 669.38035152 -185 670.5 C-187.48426667 670.60034055 -189.94074952 670.63617942 -192.42553711 670.62939453 C-193.2027562 670.63114685 -193.97997528 670.63289917 -194.78074646 670.63470459 C-197.36296794 670.63912402 -199.94512151 670.63618452 -202.52734375 670.6328125 C-204.31474318 670.63348558 -206.10214251 670.63445564 -207.88954163 670.63571167 C-211.64145781 670.63718882 -215.39335024 670.63503379 -219.14526367 670.63037109 C-223.96200677 670.6246779 -228.7786941 670.6279501 -233.59543514 670.63394356 C-237.28850222 670.63755221 -240.98155602 670.63640911 -244.67462349 670.63381577 C-246.45089283 670.63314713 -248.22716337 670.63397273 -250.00343132 670.63629532 C-252.48400961 670.63882636 -254.96449687 670.63497465 -257.44506836 670.62939453 C-258.18436584 670.63141876 -258.92366333 670.63344299 -259.68536377 670.63552856 C-264.771473 670.6142635 -264.771473 670.6142635 -267 669.5 C-264.22781275 649.51107091 -259.61002677 629.81707403 -255.40301514 610.09335327 C-254.30517131 604.94276644 -253.21691295 599.79021417 -252.1328125 594.63671875 C-251.52653082 591.75770924 -250.91974286 588.87880693 -250.3125 586 C-250.16489227 585.30008942 -250.01728455 584.60017883 -249.86520386 583.87905884 C-248.24961893 576.23051291 -246.59737269 568.59637462 -244.75 561 C-243.2883473 554.96139247 -242.16505805 548.92420418 -241.14355469 542.80078125 C-240.31608424 537.96532051 -239.24290843 533.24453584 -238 528.5 C-236.60057912 523.15181549 -235.46653387 517.82873841 -234.5625 512.375 C-233.2851731 504.6841286 -231.60056888 497.1171929 -229.83837891 489.52416992 C-228.61884342 484.25807761 -227.46939516 478.99358385 -226.4375 473.6875 C-225.43264363 468.52773189 -224.2930818 463.42147525 -223.0625 458.3125 C-220.54157188 447.80145071 -218.49908704 437.20109081 -216.43408203 426.59277344 C-213.90474608 413.62387187 -211.17491756 400.72965469 -208.15844727 387.86499023 C-206.50720314 380.79163962 -204.99312556 373.70819089 -203.60253906 366.57958984 C-201.34530464 355.0549775 -198.8526766 343.57846973 -196.40307617 332.09355164 C-195.30517576 326.9429064 -194.21691995 321.7902831 -193.1328125 316.63671875 C-187.97147562 292.12588262 -187.97147562 292.12588262 -185.75 282.9375 C-184.35273654 277.15306609 -183.1937967 271.36720378 -182.14355469 265.51318359 C-181.25675367 260.65251008 -180.16922157 255.86240441 -179 251.0625 C-177.64308028 245.48242959 -176.5007055 239.91521532 -175.5625 234.25 C-174.32759315 226.82148026 -172.62941811 219.54852656 -170.83837891 212.23632812 C-169.54842663 206.92853958 -168.39576847 201.62732417 -167.4375 196.25 C-166.49059206 190.9758815 -165.39106654 185.76792176 -164.125 180.5625 C-162.49353292 173.82231234 -161.08355968 167.0551089 -159.75 160.25 C-157.29438998 147.72560055 -154.59447789 135.25859638 -151.85449219 122.79394531 C-150.28003346 115.60446621 -148.76659129 108.41575947 -147.44140625 101.17578125 C-146.18541151 94.31474687 -144.68200253 87.53372713 -143.0625 80.75 C-141.01138182 72.02419611 -139.10682069 63.29133516 -137.40087891 54.49194336 C-136.23553925 48.53068914 -134.86942805 42.63641704 -133.43139648 36.73583984 C-132.07091819 31.05047972 -131.02226238 25.33428622 -130.12670898 19.55786133 C-129.21144242 13.91804919 -127.68786473 9.12621578 -126 3.5 C-98.61 3.5 -71.22 3.5 -43 3.5 C-43.66 7.46 -44.32 11.42 -45 15.5 C-44.34 15.5 -43.68 15.5 -43 15.5 C-42.67 14.51 -42.34 13.52 -42 12.5 C-39.76705828 11.04619971 -37.60268614 9.79029346 -35.25 8.5625 C-34.34701172 8.06073242 -34.34701172 8.06073242 -33.42578125 7.54882812 C-22.67565332 1.84400564 -12.08730966 -0.16009682 0 0 Z " fill="#030303" transform="translate(494,165.5)"/>
<path d="M0 0 C7.81032425 6.76799578 12.19568514 14.71718305 13.24804688 25.14550781 C14.31597558 41.7703979 11.55308228 57.51198922 8 73.6875 C7.75411133 74.81091797 7.50822266 75.93433594 7.25488281 77.09179688 C6.26273755 81.59730361 5.26136209 86.10047605 4.23852539 90.59912109 C2.19575194 99.61627181 0.4064954 108.66875133 -1.26367188 117.76196289 C-2.19334381 122.76299864 -3.22235908 127.69743632 -4.48828125 132.625 C-6.3894047 140.03811364 -7.73082533 147.53938899 -9.10546875 155.06445312 C-10.25615077 161.22463297 -11.63856548 167.22456137 -13.34375 173.25415039 C-14.20149076 176.43461995 -14.74441229 179.62118196 -15.25 182.875 C-16.6420903 191.29265727 -18.46658845 199.61027574 -20.3125 207.9375 C-22.68703772 218.65121244 -24.9914367 229.37291015 -27.1875 240.125 C-28.70912884 247.56940585 -30.2561908 254.99417387 -32.0625 262.375 C-34.06809728 270.63973211 -35.63258769 278.97769254 -37.16235352 287.3425293 C-38.27564685 293.32895064 -39.63592136 299.14388191 -41.29589844 305.00073242 C-42.23538741 308.58571029 -42.85815953 312.19679646 -43.48583984 315.84716797 C-44.42193717 321.01837226 -45.64266983 326.1276132 -46.8125 331.25 C-48.85197532 340.28594844 -50.74043608 349.33121733 -52.4375 358.4375 C-54.36142347 368.73698234 -56.60095304 378.94790731 -58.95370483 389.15603638 C-61.30733428 399.38459261 -63.42818269 409.63930801 -65.31445312 419.96484375 C-66.41474949 425.92774018 -67.74904708 431.77661257 -69.25488281 437.6496582 C-70.51637885 442.79277589 -71.49895453 447.9885219 -72.5 453.1875 C-73.69312807 459.38406838 -74.92863455 465.5391896 -76.5 471.65234375 C-78.39376413 479.05667089 -79.73267513 486.54951515 -81.10546875 494.06445312 C-82.25325428 500.20912663 -83.63299073 506.19185644 -85.33496094 512.20581055 C-86.25561562 515.64136666 -86.82156148 519.04780604 -87.375 522.5625 C-88.60761663 530.02544891 -90.26511242 537.34302465 -92.11083984 544.67724609 C-93.55357798 550.49571048 -94.70899576 556.33951364 -95.79043579 562.23561096 C-97.33127445 570.5851205 -99.10903672 578.88326789 -100.875 587.1875 C-101.40943796 589.7094905 -101.94329464 592.23160352 -102.47705078 594.7537384 C-102.82873944 596.41555429 -103.18062501 598.07732851 -103.53271484 599.73905945 C-104.75340715 605.50488501 -105.95260376 611.27491303 -107.14160156 617.04736328 C-108.85118974 625.34421699 -110.63178572 633.61294784 -112.61547852 641.84887695 C-113.99563764 647.58474154 -115.210808 653.34398624 -116.38671875 659.125 C-117 661.6875 -117 661.6875 -118 662.6875 C-120.52541002 662.78254251 -123.02337126 662.81307158 -125.54907227 662.80102539 C-126.73435013 662.80124443 -126.73435013 662.80124443 -127.943573 662.8014679 C-130.56787822 662.80076857 -133.19211336 662.79297527 -135.81640625 662.78515625 C-137.63101665 662.78329214 -139.44562756 662.7818682 -141.26023865 662.78086853 C-146.0459023 662.77704279 -150.8315358 662.76721204 -155.6171875 662.75616455 C-160.49674064 662.74595163 -165.37629864 662.74137117 -170.25585938 662.73632812 C-179.83725286 662.72558982 -189.41862393 662.70851273 -199 662.6875 C-200.12072467 658.82814685 -199.6834151 656.37248521 -198.75 652.4375 C-197.22575736 645.77676845 -195.94741226 639.10493249 -194.74609375 632.37890625 C-194.01133867 628.7435997 -193.01889229 625.25157706 -192 621.6875 C-191.63371323 619.69327205 -191.29868656 617.69296689 -191 615.6875 C-190.29247246 611.22123242 -189.24259366 607.03657782 -188 602.6875 C-187.69050965 600.88426824 -187.39967456 599.07779611 -187.12109375 597.26953125 C-186.05364332 590.72954588 -184.59837694 584.31857749 -183.0625 577.875 C-181.16692548 569.79649907 -179.35094542 561.72937715 -177.77734375 553.58203125 C-176.75018791 548.43592886 -175.6241591 543.31315472 -174.5 538.1875 C-173.11439613 531.86342265 -171.74786456 525.54026501 -170.5 519.1875 C-169.05351203 511.82356124 -167.44455142 504.49773448 -165.83813477 497.16723633 C-164.39674624 490.56971429 -163.04407258 483.96238626 -161.7421875 477.3359375 C-160.90303986 473.21086438 -159.98868101 469.10621688 -159.0625 465 C-157.63902691 458.68291572 -156.31321368 452.3534998 -155.0625 446 C-153.24336618 436.76739708 -151.2640314 427.57379036 -149.24609375 418.3828125 C-146.75573159 407.01646717 -144.37569571 395.63586669 -142.12573242 384.21994019 C-139.66313577 371.74524185 -137.07761263 359.31111546 -134.27246094 346.90820312 C-132.22064294 337.79323947 -130.3113802 328.65281934 -128.4375 319.5 C-128.28912689 318.77578857 -128.14075378 318.05157715 -127.98788452 317.30541992 C-127.26063761 313.75430195 -126.53466064 310.20292609 -125.80957031 306.65136719 C-120.42917032 280.30030487 -120.42917032 280.30030487 -118 270.3125 C-116.3292878 263.43649077 -114.98865699 256.51712157 -113.6875 249.5625 C-111.61541726 238.50731958 -109.2299995 227.53928358 -106.67456055 216.58740234 C-104.84486333 208.67824982 -103.19313721 200.74833831 -101.6171875 192.78515625 C-99.30951487 181.12548995 -96.84722488 169.50422443 -94.3213501 157.89007568 C-93.11608204 152.34694128 -91.91807323 146.80223557 -90.71875 141.2578125 C-90.48310333 140.16928986 -90.24745667 139.08076721 -90.00466919 137.95925903 C-86.95706123 123.87831886 -83.94536743 109.79020435 -81 95.6875 C-80.61690674 93.85807861 -80.61690674 93.85807861 -80.22607422 91.99169922 C-79.49738619 88.49595978 -78.77798958 84.99846195 -78.0625 81.5 C-77.74466553 79.97511963 -77.74466553 79.97511963 -77.42041016 78.41943359 C-75.48002514 70.44222051 -75.48002514 70.44222051 -77 62.6875 C-78.41279706 62.52448495 -79.83108128 62.4086203 -81.25 62.3125 C-82.03890625 62.24289063 -82.8278125 62.17328125 -83.640625 62.1015625 C-86.2819515 62.51293598 -86.2819515 62.51293598 -88.16796875 65.25390625 C-90.09044127 68.85700507 -91.12563477 72.02947595 -92.0625 76 C-92.2282251 76.69730225 -92.3939502 77.39460449 -92.56469727 78.11303711 C-93.84926909 83.66132054 -94.84927627 89.24658482 -95.79199219 94.86132812 C-97.31389285 103.80099657 -99.33804313 112.6311115 -101.29541016 121.48339844 C-102.55092607 127.19282008 -103.775558 132.90884693 -105 138.625 C-105.25297852 139.80513672 -105.50595703 140.98527344 -105.76660156 142.20117188 C-107.60398924 150.79137203 -109.39996588 159.38970833 -111.18237305 167.99145508 C-112.52215097 174.44016765 -113.90313971 180.87866579 -115.3125 187.3125 C-117.53034847 197.44767589 -119.67839165 207.59693749 -121.8125 217.75 C-122.0670697 218.96110947 -122.0670697 218.96110947 -122.32678223 220.19668579 C-123.2007667 224.35563041 -124.07416306 228.51469828 -124.94726562 232.67382812 C-129.17830675 252.82751132 -133.41865558 272.97928722 -137.6875 293.125 C-137.83208649 293.80734711 -137.97667297 294.48969421 -138.12564087 295.19271851 C-140.17271501 304.8473405 -142.25675253 314.4934742 -144.36791992 324.13427734 C-145.4652995 329.16381928 -146.51258734 334.19773854 -147.5 339.25 C-148.88443137 346.30588035 -150.47946615 353.30825231 -152.11132812 360.31079102 C-153.74894259 367.39242043 -155.19041713 374.50625897 -156.59545898 381.63739014 C-157.29807858 385.19808559 -158.0088632 388.7571538 -158.71875 392.31640625 C-159.01432418 393.79882787 -159.30989708 395.28124975 -159.60546875 396.76367188 C-159.82662354 397.87246704 -159.82662354 397.87246704 -160.05224609 399.00366211 C-160.35109194 400.50294269 -160.64959377 402.00229189 -160.94775391 403.50170898 C-166.01289831 428.96859075 -166.01289831 428.96859075 -168.5 438.625 C-169.91461368 444.18084027 -171.05143463 449.7699566 -172.1484375 455.39624023 C-173.00965049 459.77115027 -173.92413691 464.13397272 -174.84765625 468.49609375 C-175.2032205 470.18025418 -175.55877022 471.86441768 -175.91430664 473.54858398 C-176.09462433 474.40185272 -176.27494202 475.25512146 -176.46072388 476.13424683 C-177.3092263 480.1515608 -178.15452314 484.16954839 -179 488.1875 C-179.3333164 489.7708369 -179.66664977 491.35417022 -180 492.9375 C-180.165 493.72125 -180.33 494.505 -180.5 495.3125 C-181.25 498.875 -181.25 498.875 -182 502.4375 C-182.16507553 503.22166794 -182.33015106 504.00583588 -182.50022888 504.81376648 C-182.83270284 506.39289852 -183.16527283 507.97201035 -183.49794006 509.55110168 C-184.34522093 513.57355222 -185.19069402 517.59636902 -186.03295898 521.61987305 C-187.98308138 530.92712041 -189.98101994 540.22105429 -192.0625 549.5 C-192.58236431 551.8306549 -193.10189976 554.16138318 -193.62109375 556.4921875 C-193.8619873 557.57338867 -194.10288086 558.65458984 -194.35107422 559.76855469 C-196.48690261 569.37576472 -198.46661633 579.00845168 -200.37719727 588.66259766 C-201.89683766 596.28589989 -203.54822931 603.87804066 -205.21435547 611.47045898 C-206.35943398 616.70100459 -207.46786302 621.93351458 -208.5 627.1875 C-209.79463726 633.7420635 -211.16398343 640.27931356 -212.5625 646.8125 C-212.77261719 647.80958984 -212.98273438 648.80667969 -213.19921875 649.83398438 C-213.40289063 650.77822266 -213.6065625 651.72246094 -213.81640625 652.6953125 C-214.08626343 653.95819092 -214.08626343 653.95819092 -214.36157227 655.24658203 C-215 657.6875 -215 657.6875 -217 662.6875 C-243.73 662.6875 -270.46 662.6875 -298 662.6875 C-298.87630747 658.30596265 -299.08542911 656.89864929 -298.14453125 652.87109375 C-297.93634766 651.95255615 -297.72816406 651.03401855 -297.51367188 650.08764648 C-297.28228516 649.10997314 -297.05089844 648.1322998 -296.8125 647.125 C-296.33833911 645.0420086 -295.86570848 642.95866833 -295.39453125 640.875 C-295.15686035 639.83214844 -294.91918945 638.78929687 -294.67431641 637.71484375 C-293.7056708 633.36610897 -292.84838985 628.99848939 -292 624.625 C-290.60594658 617.51061886 -289.06397129 610.43977674 -287.4375 603.375 C-285.80133726 596.26644962 -284.25408244 589.15511036 -282.8515625 581.99609375 C-276.17617064 548.0040799 -268.86138705 514.10336425 -261.25390625 480.30859375 C-258.47723348 467.91249764 -255.95795068 455.47937016 -253.625 442.99291992 C-252.23722707 435.58152584 -250.71332095 428.27110698 -248.64746094 421.0144043 C-247.81275583 418.01456479 -247.19959017 414.99700608 -246.625 411.9375 C-245.34432742 405.33192565 -243.94281845 398.75950866 -242.5 392.1875 C-240.83473356 384.59022131 -239.24534076 376.98722893 -237.74609375 369.35546875 C-236.88455777 365.11995939 -235.94834831 360.9042551 -235 356.6875 C-233.49482194 349.99232095 -232.09900057 343.28344139 -230.76953125 336.55078125 C-228.09401791 323.1188894 -225.13196938 309.75187966 -222.14355469 296.38671875 C-220.59888135 289.45433475 -219.13468346 282.51830025 -217.77734375 275.546875 C-216.74350333 270.41403915 -215.6209238 265.30192029 -214.5 260.1875 C-213.09131781 253.75960838 -211.7066974 247.33195509 -210.4375 240.875 C-209.40430392 235.62821099 -208.2927679 230.40551539 -207.125 225.1875 C-206.96008057 224.45023682 -206.79516113 223.71297363 -206.62524414 222.95336914 C-206.27428115 221.38524723 -205.92328713 219.81713225 -205.57226562 218.24902344 C-201.58834926 200.68797577 -201.58834926 200.68797577 -198.39453125 182.97265625 C-197.84729703 179.80303231 -196.89787409 176.77394219 -196 173.6875 C-195.69146763 172.06146985 -195.40042696 170.4320811 -195.12109375 168.80078125 C-193.96152304 162.30085646 -192.52160462 155.8757193 -191.0625 149.4375 C-189.17758041 141.04603747 -187.35484633 132.65679909 -185.7109375 124.21484375 C-184.86647135 120.02499247 -183.93815851 115.85719053 -183 111.6875 C-181.4947544 104.99233718 -180.09900012 98.28343912 -178.76953125 91.55078125 C-176.33100814 79.30865256 -173.66096632 67.11900475 -170.9375 54.9375 C-169.13931416 46.88784746 -167.38747325 38.84038045 -165.80102539 30.74633789 C-164.66198797 24.95597306 -163.47731744 19.17494846 -162.28930664 13.39447021 C-162.0142836 12.05391523 -161.74034817 10.71313664 -161.4675293 9.37213135 C-161.08259813 7.48061255 -160.69371833 5.58989863 -160.3046875 3.69921875 C-160.07765137 2.59022217 -159.85061523 1.48122559 -159.61669922 0.33862305 C-159 -2.3125 -159 -2.3125 -158 -4.3125 C-130.61 -4.3125 -103.22 -4.3125 -75 -4.3125 C-75.58195335 -0.23882656 -76.15106484 3.6853771 -77 7.6875 C-76.05640625 6.99914062 -76.05640625 6.99914062 -75.09375 6.296875 C-69.91651757 2.58548549 -64.9206727 -0.92165643 -59 -3.3125 C-58.12214844 -3.68503906 -57.24429687 -4.05757812 -56.33984375 -4.44140625 C-39.38097375 -10.47262767 -15.01449043 -10.78710963 0 0 Z " fill="#030303" transform="translate(1328,173.3125)"/>
<path d="M0 0 C27.39 0 54.78 0 83 0 C81.7321855 8.87470148 80.39375232 17.15408237 78.1875 25.75 C75.68482181 35.79610261 73.57905006 45.87001627 71.73706055 56.05761719 C70.85588153 60.86098187 69.88976517 65.56196481 68.54296875 70.2578125 C67.09614771 75.36639771 66.09636217 80.5200418 65.15016174 85.73828125 C63.78997256 93.23264724 62.21655061 100.67688537 60.625 108.125 C60.4734848 108.83755951 60.3219696 109.55011902 60.16586304 110.28427124 C58.09222061 120.03610891 55.93796431 129.7658124 53.69702148 139.48071289 C52.25298515 145.77964791 50.96173392 152.09811296 49.72314453 158.44018555 C47.99563374 167.19396604 46.0859766 175.90710108 44.1875 184.625 C41.148745 198.58481526 38.20168763 212.56058787 35.34643555 226.55908203 C32.69887708 239.53770835 29.90886896 252.47533659 26.95407104 265.38754272 C24.72282248 275.15366026 22.56091028 284.90599253 20.796875 294.76953125 C17.7645084 311.2942722 13.87218548 327.67803583 10.04418945 344.0324707 C8.40335744 351.09627159 6.98234485 358.16349987 5.70703125 365.30078125 C4.80405602 370.02518754 3.6839747 374.68288405 2.55249023 379.35668945 C1.00816598 385.80349051 -0.2864314 392.29026474 -1.5612793 398.79492188 C-2.89501637 405.56937491 -4.40054734 412.28229884 -6 419 C-2.04 419.33 1.92 419.66 6 420 C6 419.34 6 418.68 6 418 C6.99377504 416.99381355 7.99446592 415.99443513 9 415 C12.17693164 408.13481 13.42198574 400.79128455 14.87481689 393.41012573 C15.62535787 389.59875706 16.39758643 385.79177393 17.16796875 381.984375 C17.32233398 381.21894882 17.47669922 380.45352264 17.63574219 379.66490173 C19.03933675 372.73460737 20.56431306 365.83405594 22.125 358.9375 C23.94282948 350.87290458 25.66545442 342.80108736 27.25 334.6875 C29.61394083 322.60668605 32.24358044 310.58732015 34.875 298.5625 C37.82995513 285.05717328 40.74852257 271.5483222 43.5 258 C46.23526128 244.53609506 49.12901322 231.10954478 52.0625 217.6875 C55.09994467 203.78973658 58.09705451 189.88785084 60.95117188 175.95117188 C62.61042483 167.85345021 64.32268372 159.76828592 66.0625 151.6875 C67.81933926 143.5263558 69.55848194 135.36243452 71.25 127.1875 C73.97734057 114.01266686 76.79456438 100.85700617 79.60174561 87.69900513 C82.23578238 75.34951196 84.84216706 62.99566046 87.375 50.625 C89.12637951 42.07347791 91.0004192 33.57227862 93.05859375 25.08984375 C94.45016168 19.20925181 95.56734742 13.26791104 96.69384766 7.33178711 C97.89564334 1.10435666 97.89564334 1.10435666 99 0 C101.58639038 -0.09507821 104.1459856 -0.12556376 106.73266602 -0.11352539 C107.94720459 -0.11374443 107.94720459 -0.11374443 109.1862793 -0.1139679 C111.87551508 -0.11326854 114.56468249 -0.1054751 117.25390625 -0.09765625 C119.11335716 -0.09579215 120.97280856 -0.09436821 122.83226013 -0.09336853 C127.73629096 -0.08954271 132.64029236 -0.07971188 137.54431152 -0.06866455 C142.54451092 -0.05845181 147.54471506 -0.05387121 152.54492188 -0.04882812 C162.36329421 -0.03808967 172.18164466 -0.02101248 182 0 C180.58589162 7.8264045 179.11485387 15.63728225 177.5625 23.4375 C177.35818359 24.47970703 177.15386719 25.52191406 176.94335938 26.59570312 C175.91442835 31.76600139 174.80192573 36.88924337 173.4921875 41.99609375 C171.91866307 48.16170965 170.71971198 54.36983832 169.5625 60.625 C167.73749594 70.28803122 165.76613888 79.89347348 163.57421875 89.47900391 C160.00824985 105.134699 156.58845397 120.81857111 153.33984375 136.54296875 C151.50604606 145.409332 149.61882504 154.26439699 147.7355957 163.12036133 C147.43570046 164.53075977 147.13581444 165.94116017 146.8359375 167.3515625 C146.68611923 168.0560704 146.53630096 168.76057831 146.38194275 169.48643494 C145.44155851 173.91181867 144.50671946 178.33833688 143.57614136 182.76579285 C142.95199062 185.73497397 142.32621812 188.70381241 141.70037842 191.67263794 C141.40535123 193.07438692 141.11109224 194.47629787 140.81768799 195.87838745 C139.46789352 202.32726406 138.09130231 208.75430474 136.453125 215.13671875 C134.86111052 221.37664146 133.6655291 227.66854515 132.5 234 C131.1364125 241.4073592 129.61047626 248.70862887 127.73632812 256.00390625 C126.47590507 261.13252419 125.49833011 266.31512428 124.5 271.5 C123.10451138 278.74753768 121.55055734 285.90559061 119.72314453 293.05664062 C118.54811347 297.83927885 117.62226451 302.66569435 116.6875 307.5 C113.19399578 325.24392728 109.55001575 342.97087498 105.25097656 360.53930664 C104.33759904 364.33020631 103.68570986 368.07244038 103.1875 371.9375 C100.47342034 388.82510677 92.3925268 403.5175935 78.9375 414.0625 C72.81667324 418.35022568 66.52280512 422.02931547 59 423 C59 423.66 59 424.32 59 425 C59.66 425.185625 60.32 425.37125 61 425.5625 C69.8236615 429.79050447 75.0921939 437.21260534 79 446 C82.30337427 456.70668115 82.68613971 466.62159939 80.75 477.5625 C80.61722656 478.33843506 80.48445312 479.11437012 80.34765625 479.91381836 C79.3207823 485.6988164 77.97441066 491.3612927 76.47924805 497.04052734 C75.26330153 501.72772129 74.34867283 506.41067587 73.5625 511.1875 C72.47499955 517.78858931 71.03499516 524.25406011 69.4375 530.75 C68.06900125 536.31900889 66.77381251 541.81063563 66 547.5 C65.22618304 553.18939708 63.93078043 558.68091968 62.5625 564.25 C60.99786469 570.62215818 59.56677888 576.96274483 58.5 583.4375 C57.42266874 589.95675528 56.05608962 596.37603951 54.5625 602.8125 C52.96841131 609.6918468 51.43266971 616.57235305 50.0625 623.5 C49.9080542 624.27891602 49.7536084 625.05783203 49.59448242 625.86035156 C48.68125595 630.49076997 47.78263832 635.1239444 46.88725281 639.75784302 C46.35409233 642.50877733 45.8153693 645.25860764 45.27584839 648.00830078 C45.01001633 649.3705914 44.74674335 650.73338404 44.4861145 652.09667969 C44.11930466 654.01486123 43.74341909 655.93130042 43.3671875 657.84765625 C43.15175293 658.96148682 42.93631836 660.07531738 42.71435547 661.22290039 C42 664 42 664 40 667 C37.54695523 667.29217587 35.34610612 667.38903385 32.89160156 667.35644531 C32.1596759 667.35848969 31.42775024 667.36053406 30.67364502 667.36264038 C28.24572026 667.36565655 25.81846948 667.34714005 23.390625 667.328125 C21.70392017 667.32506738 20.01721281 667.32319128 18.33050537 667.32244873 C14.78957501 667.31783967 11.2488713 667.30339606 7.70800781 667.28125 C3.17752942 667.25305369 -1.3527697 667.2420475 -5.88332748 667.2375679 C-9.36983014 667.23340071 -12.85629684 667.22357104 -16.34278107 667.21169281 C-18.01247116 667.20600831 -19.68216465 667.20124366 -21.35186005 667.19742584 C-23.69264196 667.19051659 -26.03328614 667.17686023 -28.37402344 667.16113281 C-29.05996582 667.16001495 -29.7459082 667.15889709 -30.45263672 667.15774536 C-34.39893533 667.1228 -38.12651064 666.752062 -42 666 C-41.58538932 661.02467183 -40.91062437 656.38863967 -39.625 651.5625 C-38.31055831 646.56382991 -37.41070916 641.59992652 -36.625 636.5 C-35.4552814 629.00266076 -33.75092348 621.73847874 -31.83862305 614.39916992 C-30.28728183 608.36760676 -29.10385015 602.34658192 -28.08935547 596.20483398 C-27.28554317 591.41605791 -26.27771143 586.71630415 -25.125 582 C-23.46942851 575.19807028 -22.03854504 568.36872172 -20.6875 561.5 C-18.66468953 551.23207302 -16.54673239 540.987239 -14.375 530.75 C-14.22888275 530.05898193 -14.0827655 529.36796387 -13.93222046 528.65600586 C-12.47314031 521.75991826 -10.97598108 514.88267759 -9.30078125 508.03515625 C-8.14965051 503.0948868 -7.6704875 498.75261233 -7.8125 493.6875 C-7.83957031 492.41261719 -7.86664062 491.13773438 -7.89453125 489.82421875 C-7.92933594 488.89222656 -7.96414063 487.96023438 -8 487 C-10.88211302 486.03929566 -12.69850044 485.89418117 -15.6875 485.9375 C-16.89986328 485.95103516 -16.89986328 485.95103516 -18.13671875 485.96484375 C-18.75160156 485.97644531 -19.36648438 485.98804688 -20 486 C-20.13051758 486.66829834 -20.26103516 487.33659668 -20.39550781 488.02514648 C-24.78575149 510.43191991 -24.78575149 510.43191991 -27.125 520 C-28.63386772 526.17757826 -29.80559557 532.36339449 -30.8581543 538.63354492 C-31.82700696 544.29026875 -33.09319367 549.8414181 -34.44921875 555.41625977 C-35.97356884 561.73812644 -37.24818783 568.09765071 -38.49755859 574.47875977 C-39.60193869 580.08989761 -40.79715952 585.67308429 -42.0625 591.25 C-43.4771362 597.4893618 -44.72006534 603.73886769 -45.85571289 610.03442383 C-46.87931197 615.59847991 -48.1820673 621.07659609 -49.51953125 626.57226562 C-50.70899363 631.54349199 -51.66009197 636.52131884 -52.5 641.5625 C-53.48351531 647.43828586 -54.6825185 653.21900803 -56.125 659 C-56.29580078 659.68908447 -56.46660156 660.37816895 -56.64257812 661.08813477 C-57.86829035 665.86829035 -57.86829035 665.86829035 -59 667 C-61.4127627 667.10030428 -63.79691272 667.13618426 -66.21020508 667.12939453 C-66.96470444 667.13114685 -67.7192038 667.13289917 -68.49656677 667.13470459 C-71.00424464 667.13912495 -73.5118526 667.1361836 -76.01953125 667.1328125 C-77.75729893 667.1334857 -79.49506651 667.13445586 -81.23283386 667.13571167 C-84.88220106 667.13718906 -88.53154384 667.13503355 -92.1809082 667.13037109 C-96.85845043 667.12468646 -101.53593513 667.1279445 -106.21347523 667.13394356 C-109.80539889 667.13755888 -113.39730894 667.13640588 -116.98923302 667.13381577 C-118.71360976 667.13314853 -120.43798775 667.13396783 -122.16236305 667.13629532 C-124.57547901 667.13883634 -126.98850227 667.13496018 -129.40161133 667.12939453 C-130.11501678 667.13141876 -130.82842224 667.13344299 -131.56344604 667.13552856 C-134.85378676 667.12147832 -137.85332321 667.01494329 -141 666 C-140.02134284 656.490958 -138.25214387 647.3969929 -135.96044922 638.12329102 C-134.46002191 632.02444364 -133.13258031 625.91570478 -131.9375 619.75 C-130.73350658 613.54722446 -129.42474023 607.39113638 -127.9375 601.25 C-126.47284749 595.19995051 -125.24287423 589.14265826 -124.14428711 583.01635742 C-123.25692799 578.15467969 -122.16948122 573.36347034 -121 568.5625 C-119.64307621 562.98241282 -118.50092538 557.41518546 -117.5625 551.75 C-116.34140309 544.42001005 -114.67777917 537.24221822 -112.91088867 530.02636719 C-111.21263606 523.03919772 -109.75644318 516.02360826 -108.38134766 508.96655273 C-107.48327799 504.37138382 -106.52044099 499.80620767 -105.4375 495.25 C-104.33568774 490.60580209 -103.41210003 485.94575464 -102.5625 481.25 C-101.57474292 475.80922907 -100.43146599 470.43538975 -99.125 465.0625 C-97.47374125 458.23940404 -96.04334206 451.38763386 -94.6875 444.5 C-92.80243128 434.9387283 -90.85043775 425.39371614 -88.83413696 415.859375 C-88.53265932 414.43328254 -88.2319943 413.00701799 -87.93222046 411.58056641 C-86.31322736 403.88217044 -84.57873613 396.23104679 -82.63427734 388.60766602 C-81.78782316 385.12769022 -81.19121095 381.66198009 -80.625 378.125 C-79.32684217 370.35219033 -77.61974035 362.6999277 -75.83862305 355.02514648 C-74.34575818 348.57896611 -73.00811163 342.12437683 -71.74609375 335.62890625 C-70.91850677 331.60362715 -69.96838054 327.61815363 -69 323.625 C-67.61964752 317.92205007 -66.46522232 312.22486179 -65.5 306.4375 C-64.48898644 300.39748278 -63.17922182 294.51681598 -61.62329102 288.58837891 C-59.70474302 281.12585133 -58.27198551 273.56894249 -56.79003906 266.01000977 C-55.53845493 259.64099886 -54.18443901 253.32448221 -52.67578125 247.01171875 C-51.87459277 243.44110418 -51.21419064 239.85008266 -50.5625 236.25 C-49.55637142 230.70533498 -48.38775708 225.22700402 -47.0625 219.75 C-44.57004843 209.42446914 -42.55061374 199.01042527 -40.53222656 188.58349609 C-38.35277098 177.33372696 -35.90864451 166.17215024 -33.28833008 155.01660156 C-31.24725019 146.2538232 -29.4313569 137.45832812 -27.73657227 128.62231445 C-26.57188999 122.60825419 -25.18709941 116.68986718 -23.67163086 110.75488281 C-22.80579741 107.20342348 -22.19882357 103.67311713 -21.625 100.0625 C-20.37279106 92.52935628 -18.65493933 85.15232983 -16.83862305 77.73754883 C-15.54867816 72.42935993 -14.39546511 67.1277901 -13.4375 61.75 C-12.46215728 56.30020365 -11.30979426 50.93829261 -10 45.5625 C-8.6356672 39.95775961 -7.50750028 34.37885761 -6.5625 28.6875 C-4.82606078 19.03289792 -2.37915658 9.51662632 0 0 Z " fill="#030303" transform="translate(584,169)"/>
<path d="M0 0 C0 0.66 0 1.32 0 2 C0.763125 2.268125 1.52625 2.53625 2.3125 2.8125 C4.88988618 3.95134505 6.26954864 4.81416671 8 7 C8 7.66 8 8.32 8 9 C8.99 9.33 9.98 9.66 11 10 C14.67564901 13.87373788 16.63567732 18.15430112 18.6875 23 C19.14866211 24.04800781 19.14866211 24.04800781 19.61914062 25.1171875 C23.03646368 33.04358232 23.21590285 40.19665785 23.24023438 48.79785156 C23.24980922 50.8344214 23.28080618 52.86992219 23.3125 54.90625 C23.38850854 64.2740006 22.09367843 72.83904188 20 82 C19.5995946 84.01656424 19.2071349 86.03472932 18.82421875 88.0546875 C16.53041088 99.84114673 13.964108 111.51707394 11.09277344 123.17626953 C9.50908053 129.67434022 8.18439608 136.15013101 7.11279297 142.74975586 C6.01476766 149.33551029 4.42565154 155.78343883 2.83789062 162.265625 C1.54812444 167.57275958 0.39557891 172.87332837 -0.5625 178.25 C-1.52843916 183.63321151 -2.6517436 188.93718072 -3.9375 194.25 C-5.39923554 200.31071927 -6.72648444 206.38415875 -7.9375 212.5 C-8.1012915 213.32701416 -8.26508301 214.15402832 -8.43383789 215.00610352 C-9.15066042 218.64400371 -9.86121284 222.28307272 -10.56591797 225.92333984 C-13.05267302 238.75466464 -15.78003186 251.47705211 -18.90527344 264.16870117 C-20.51271203 270.7641116 -21.86077979 277.34277178 -22.9597168 284.03979492 C-23.8788867 289.56491509 -25.12497091 294.97563123 -26.44970703 300.41601562 C-27.77748942 305.91844654 -28.91647557 311.44467775 -30 317 C-31.22681235 323.28515589 -32.55540422 329.52603956 -34.0625 335.75 C-35.52713189 341.80005636 -36.75712541 347.85733971 -37.85571289 353.98364258 C-38.74307076 358.84531342 -39.83040635 363.63655988 -41 368.4375 C-42.38309265 374.12000895 -43.5393097 379.79373949 -44.5 385.5625 C-45.42632214 391.11979665 -46.57211138 396.55001272 -48 402 C-49.40639478 407.36891372 -50.53498308 412.71150421 -51.4375 418.1875 C-52.66912999 425.63868846 -54.36523185 432.9300498 -56.16162109 440.26342773 C-57.45147874 445.57131365 -58.60428886 450.8725863 -59.5625 456.25 C-60.52843916 461.63321151 -61.6517436 466.93718072 -62.9375 472.25 C-64.39923554 478.31071927 -65.72648444 484.38415875 -66.9375 490.5 C-67.18318726 491.74052124 -67.18318726 491.74052124 -67.43383789 493.00610352 C-68.15066042 496.64400371 -68.86121284 500.28307272 -69.56591797 503.92333984 C-72.05252715 516.75391194 -74.77815895 529.47605493 -77.90527344 542.16650391 C-79.51885731 548.78345676 -80.86265953 555.38322955 -81.95751953 562.10351562 C-82.8537871 567.49432084 -84.13932875 572.71423962 -85.5222168 577.99365234 C-86.73166827 582.69675495 -87.64800502 587.39726164 -88.4375 592.1875 C-89.66912999 599.63868846 -91.36523185 606.9300498 -93.16162109 614.26342773 C-94.45148186 619.57132648 -95.60415154 624.87260029 -96.5625 630.25 C-97.59571479 636.00057829 -98.78942361 641.68694523 -100.125 647.375 C-100.29588135 648.10750977 -100.4667627 648.84001953 -100.64282227 649.59472656 C-101.87080598 654.74161195 -101.87080598 654.74161195 -103 657 C-129.73 657 -156.46 657 -184 657 C-186.3658545 647.53658201 -182.30803878 636.50107922 -180.0625 627.1875 C-178.06723365 618.74091245 -176.23512138 610.32173929 -174.7109375 601.77734375 C-173.90833932 597.51298971 -172.96583942 593.29221056 -172 589.0625 C-170.65958273 583.18857758 -169.49322469 577.31729414 -168.5 571.375 C-167.57227422 565.83986684 -166.42074234 560.42938453 -165 555 C-163.60074315 549.65178756 -162.46632759 544.32877784 -161.5625 538.875 C-160.45384745 532.18571439 -159.0418233 525.60253113 -157.5 519 C-155.80699935 511.74508616 -154.32134533 504.50657209 -153.1003418 497.15844727 C-151.77544081 489.35352446 -149.8943403 481.68313656 -148 474 C-152.95 473.67 -157.9 473.34 -163 473 C-163.28359375 474.57652344 -163.5671875 476.15304687 -163.859375 477.77734375 C-166.79120495 493.88440601 -170.14928195 509.87416059 -173.90478516 525.80859375 C-175.47659477 532.54112721 -176.83558809 539.26343198 -177.95751953 546.08398438 C-178.89229076 551.67333811 -180.17746493 557.13564313 -181.5222168 562.63598633 C-182.68976753 567.48346134 -183.62393939 572.33165629 -184.4375 577.25 C-185.66745609 584.65737603 -187.37089593 591.90358815 -189.16162109 599.19335938 C-190.66113856 605.37250307 -191.86889127 611.54769291 -192.90405273 617.81933594 C-193.87256686 623.57437401 -195.19185113 629.21133848 -196.58569336 634.87646484 C-197.91329695 640.36560745 -198.81220486 645.85348817 -199.5078125 651.4609375 C-200 654 -200 654 -202 657 C-204.62698971 657.29176256 -207.01817155 657.38879907 -209.64672852 657.35644531 C-210.43545349 657.35848969 -211.22417847 657.36053406 -212.0368042 657.36264038 C-214.65107191 657.36565534 -217.26471323 657.34715171 -219.87890625 657.328125 C-221.68969059 657.32506878 -223.50047727 657.32319162 -225.31126404 657.32244873 C-229.10856096 657.31784133 -232.90564632 657.30339775 -236.70288086 657.28125 C-241.58136046 657.25294712 -246.45967337 657.24203706 -251.33822727 657.2375679 C-255.07758772 657.23342021 -258.81691413 657.22360854 -262.55625725 657.21169281 C-264.35567895 657.2059778 -266.15510395 657.20122319 -267.95453072 657.19742584 C-270.4639683 657.19058542 -272.97327111 657.17696425 -275.48266602 657.16113281 C-276.23333847 657.16001495 -276.98401093 657.15889709 -277.75743103 657.15774536 C-282.8853129 657.1146871 -282.8853129 657.1146871 -284 656 C-283.43071685 648.04702937 -281.7745175 640.30238884 -280.1875 632.5 C-279.9156016 631.15096172 -279.64371038 629.801922 -279.37182617 628.45288086 C-277.81989188 620.7949471 -276.17735237 613.16797141 -274.32885742 605.57617188 C-272.97799932 600.01689849 -271.87445594 594.42315686 -270.78125 588.80859375 C-269.93910818 584.7031524 -268.98322113 580.63584469 -268 576.5625 C-266.67517696 571.06398632 -265.50050896 565.56661777 -264.5 560 C-263.53578092 554.6411922 -262.4115921 549.3530173 -261.125 544.0625 C-259.47371769 537.23941098 -258.04334174 530.38763224 -256.6875 523.5 C-254.80243128 513.9387283 -252.85043775 504.39371614 -250.83413696 494.859375 C-250.53265932 493.43328254 -250.2319943 492.00701799 -249.93222046 490.58056641 C-248.3129468 482.88083638 -246.57876781 475.22805824 -244.63427734 467.60327148 C-243.79172002 464.14515419 -243.19173248 460.70197742 -242.625 457.1875 C-240.42768481 444.15853818 -237.41474748 431.2940227 -234.51953125 418.40625 C-231.86676411 406.57925848 -229.31106726 394.74616495 -226.96704102 382.85400391 C-225.19361114 373.88766628 -223.33232211 364.9413366 -221.4375 356 C-221.2855014 355.28261658 -221.13350281 354.56523315 -220.97689819 353.82611084 C-219.35735212 346.19780313 -217.71427107 338.57894934 -215.875 331 C-214.03574073 323.37019142 -212.51136535 315.69015344 -210.99560547 307.99023438 C-209.17721405 298.78660956 -207.216372 289.61732173 -205.23095703 280.44848633 C-203.57541955 272.77160737 -202.01014362 265.08166677 -200.5 257.375 C-198.59024447 247.65310004 -196.41969082 238.00851234 -194.15795898 228.36303711 C-192.50964946 221.30195675 -190.99808647 214.23080626 -189.60913086 207.11474609 C-187.98579522 198.83053504 -186.24967796 190.57075086 -184.5 182.3125 C-184.34689362 181.58933594 -184.19378723 180.86617187 -184.03604126 180.12109375 C-182.3575376 172.20644799 -180.65260634 164.3019233 -178.75 156.4375 C-177.35289992 150.65374247 -176.19479498 144.86848523 -175.14355469 139.01538086 C-174.12012619 133.41066158 -172.82160345 127.8914308 -171.48046875 122.35546875 C-170.33959569 117.59167056 -169.36547312 112.8209882 -168.5 108 C-167.38871644 101.81929118 -166.0355419 95.72970929 -164.54418945 89.63012695 C-163.62660819 85.82859597 -162.79904736 82.03207809 -162.1015625 78.18359375 C-158.096909 56.10916226 -151.16710458 35.99277457 -136 19 C-135.26265625 18.16855469 -134.5253125 17.33710938 -133.765625 16.48046875 C-101.98971585 -17.32037579 -39.13598017 -24.01526056 0 0 Z M-72 50 C-74.24615357 53.36923035 -74.65309675 55.65877863 -75.375 59.625 C-76.430845 65.25204893 -77.64194552 70.81341292 -79 76.375 C-80.38132249 82.07766581 -81.53500578 87.77518395 -82.5 93.5625 C-83.52541581 99.70099601 -84.86945551 105.6765517 -86.44921875 111.70166016 C-87.87320119 117.23981913 -88.96410398 122.81500794 -90 128.4375 C-91.18281578 134.8554457 -92.45870938 141.22073915 -94 147.5625 C-95.40382351 153.35301827 -96.66710227 159.1528227 -97.8125 165 C-99.71644925 174.71304061 -101.76516684 184.39324669 -103.83065796 194.07287598 C-105.71461761 202.90350455 -107.56879576 211.73879178 -109.3762207 220.58544922 C-111.51716591 231.06330627 -113.77399749 241.48866567 -116.31469727 251.87695312 C-117.86230978 258.2565208 -119.09769621 264.65287602 -120.25390625 271.11328125 C-121.04928109 275.25672607 -122.00154416 279.3395346 -123 283.4375 C-124.36336257 289.03825464 -125.50103151 294.62518318 -126.4375 300.3125 C-127.62725916 307.50369178 -129.33116989 314.49676932 -131.16162109 321.54907227 C-132.71330637 327.61469784 -133.89422086 333.67197846 -134.90625 339.84765625 C-135.82238248 345.31357024 -137.11426068 350.62345688 -138.51977539 355.98144531 C-139.93771558 361.49076899 -140.9287685 367.02494214 -141.85107422 372.63574219 C-142.68810371 377.5897756 -143.82552757 382.39863625 -145.125 387.25 C-146.95959936 394.13910779 -147.75615333 400.8796771 -148 408 C-145.52076199 408.02685095 -143.0418116 408.04676547 -140.5625 408.0625 C-139.85544922 408.07087891 -139.14839844 408.07925781 -138.41992188 408.08789062 C-136.61306441 408.09653588 -134.80612397 408.05220011 -133 408 C-131.0527754 406.0527754 -131.18139399 402.53966902 -130.75 399.875 C-128.42907978 386.20832817 -125.30439098 372.71173121 -122.2265625 359.19921875 C-121.60915214 356.48702983 -120.99202082 353.77477756 -120.375 351.0625 C-120.22199432 350.39069702 -120.06898865 349.71889404 -119.91134644 349.0267334 C-117.98541904 340.55793465 -116.19413461 332.09027956 -114.67578125 323.5390625 C-113.76456786 318.76704323 -112.62000046 314.06199254 -111.47753906 309.34106445 C-110.20935137 304.0430594 -109.17472754 298.72525196 -108.21264648 293.36230469 C-106.9876477 286.67223851 -105.44558499 280.06192288 -103.91088867 273.43725586 C-102.25973629 266.26446113 -100.79002001 259.06730589 -99.38134766 251.84350586 C-98.5188173 247.46183405 -97.57221784 243.13383479 -96.4375 238.8125 C-95.21883891 234.1540697 -94.356995 229.49414885 -93.5625 224.75 C-92.61368109 219.08923924 -91.45646872 213.55175647 -90 208 C-88.59341578 202.63114178 -87.46501399 197.28847801 -86.5625 191.8125 C-85.33087001 184.36131154 -83.63476815 177.0699502 -81.83837891 169.73657227 C-80.54852655 164.42870814 -79.39540595 159.127458 -78.4375 153.75 C-77.46215508 148.30019135 -76.30965459 142.93833192 -75 137.5625 C-73.64306233 131.98242703 -72.50081328 126.41519971 -71.5625 120.75 C-70.32264264 113.29953689 -68.62853496 105.99949474 -66.83837891 98.66381836 C-65.31215043 92.38900354 -63.97462587 86.11234575 -62.7578125 79.76953125 C-62.18889563 76.93960972 -61.58171892 74.13503371 -60.9296875 71.32421875 C-60.7447876 70.52266357 -60.5598877 69.7211084 -60.36938477 68.89526367 C-60.00912893 67.34573716 -59.64282853 65.79759823 -59.26928711 64.2512207 C-57.33963398 56.5175274 -57.33963398 56.5175274 -59.0625 49.0625 C-63.2155298 46.78503205 -68.17395695 47.30759934 -72 50 Z " fill="#030303" transform="translate(295,179)"/>
<path d="M0 0 C23.01616806 0.06373593 45.64038551 4.08778506 62.53271484 21.04345703 C66.59910002 25.62869848 69.52011969 30.50353462 72.16552734 36.01220703 C72.50068359 36.69798828 72.83583984 37.38376953 73.18115234 38.09033203 C80.90520428 56.11311989 77.39606022 78.97355903 72.76806641 97.40551758 C71.34930623 103.0733994 70.22166609 108.76639605 69.16552734 114.51220703 C67.85329325 121.60571096 66.37104241 128.62079354 64.66552734 135.62939453 C63.35535946 141.0645441 62.23684626 146.52535932 61.16552734 152.01220703 C59.95398287 158.21249885 58.65055816 164.37161908 57.16552734 170.51220703 C55.79073579 176.22049459 54.54479006 181.9378523 53.41552734 187.69970703 C51.44227902 197.76030694 49.34236602 207.79300748 47.22802734 217.82470703 C47.05146606 218.66262787 46.87490479 219.50054871 46.69299316 220.36386108 C44.53134881 230.61512732 42.34389699 240.8600284 40.09936523 251.09350586 C38.06790791 260.38845273 36.11995525 269.70083281 34.16552734 279.01220703 C31.61402241 291.16653627 29.03231114 303.31292405 26.38037109 315.44580078 C22.98464418 330.98245304 19.62539239 346.52391005 16.5637207 362.13012695 C15.54113713 367.28674044 14.39783499 372.40191239 13.16552734 377.51220703 C11.57869094 384.10403392 10.18684025 390.71699593 8.87646484 397.36889648 C7.17794556 405.98709905 5.43065153 414.5949296 3.66552734 423.19970703 C3.5122699 423.94730286 3.35901245 424.69489868 3.20111084 425.46514893 C1.56258605 433.44296958 -0.09039558 441.41156758 -2.02197266 449.32470703 C-3.43879581 455.15340989 -4.61965576 460.99118753 -5.70947266 466.88720703 C-7.43879451 476.23732802 -9.46181375 485.5064347 -11.55053711 494.78222656 C-13.4556491 503.25724821 -15.25993643 511.74877275 -17.0144043 520.25610352 C-18.36853704 526.80997655 -19.77273605 533.35098539 -21.20947266 539.88720703 C-23.52979699 550.44990536 -25.6944157 561.04251737 -27.85629272 571.63845825 C-29.47447279 579.55913797 -31.10237949 587.47031461 -33.02197266 595.32470703 C-34.43879705 601.15341499 -35.61959704 606.99119471 -36.70947266 612.88720703 C-38.87878015 624.61041983 -41.49519696 636.22540857 -44.125 647.85253906 C-44.78633246 650.79781255 -45.43343037 653.74568192 -46.07275391 656.69580078 C-46.25644531 657.53989502 -46.44013672 658.38398926 -46.62939453 659.25366211 C-46.96541409 660.80109557 -47.29889691 662.34908286 -47.62939453 663.89770508 C-48.72280492 668.9005393 -48.72280492 668.9005393 -49.83447266 670.01220703 C-52.35988267 670.10724954 -54.85784392 670.13777861 -57.38354492 670.12573242 C-58.56882278 670.12595146 -58.56882278 670.12595146 -59.77804565 670.12617493 C-62.40235087 670.1254756 -65.02658601 670.1176823 -67.65087891 670.10986328 C-69.46548931 670.10799917 -71.28010022 670.10657524 -73.0947113 670.10557556 C-77.88037495 670.10174982 -82.66600845 670.09191907 -87.45166016 670.08087158 C-92.3312133 670.07065866 -97.21077129 670.0660782 -102.09033203 670.06103516 C-111.67172552 670.05029685 -121.25309658 670.03321976 -130.83447266 670.01220703 C-132.20673136 665.53273585 -131.18181334 661.73619395 -130.20947266 657.26220703 C-129.93586914 655.95340576 -129.93586914 655.95340576 -129.65673828 654.61816406 C-129.26219343 652.73411275 -128.86394133 650.8508348 -128.46240234 648.96826172 C-127.82709005 645.97745251 -127.20751117 642.98377092 -126.59228516 639.98876953 C-124.70749746 630.83272341 -122.77960234 621.69069961 -120.70947266 612.57470703 C-119.25956143 606.18639247 -118.06550183 599.78455558 -116.97631836 593.32592773 C-116.1307107 588.42049712 -115.07684807 583.59737164 -113.89697266 578.76220703 C-112.37636135 572.52083805 -111.07249629 566.26512673 -109.89697266 559.94970703 C-108.35985421 551.70127913 -106.70872855 543.48448902 -104.98242188 535.27368164 C-102.79506608 524.8601102 -100.65763967 514.43647541 -98.52197266 504.01220703 C-98.15641547 502.22851507 -97.79085563 500.44482365 -97.42529297 498.66113281 C-96.56130944 494.44490132 -95.69776105 490.22858091 -94.83447266 486.01220703 C-99.45447266 486.34220703 -104.07447266 486.67220703 -108.83447266 487.01220703 C-111.57497162 496.90976014 -113.85758631 506.71671079 -115.70947266 516.82470703 C-117.5351282 526.58809174 -119.52292089 536.28755703 -121.83447266 545.94970703 C-124.50463213 557.1471783 -126.68793312 568.40365645 -128.74267578 579.72680664 C-130.75944463 590.81126766 -133.01052518 601.82311016 -135.70947266 612.76220703 C-137.47651548 620.09543475 -138.92867182 627.47709608 -140.33447266 634.88720703 C-143.40947293 651.07953899 -143.40947293 651.07953899 -145.02197266 658.94970703 C-145.17666016 659.73007324 -145.33134766 660.51043945 -145.49072266 661.31445312 C-146.20559343 664.75593426 -146.85983247 667.05024675 -148.83447266 670.01220703 C-151.46146237 670.3039696 -153.8526442 670.4010061 -156.48120117 670.36865234 C-157.26992615 670.37069672 -158.05865112 670.37274109 -158.87127686 670.37484741 C-161.48554456 670.37786237 -164.09918589 670.35935874 -166.71337891 670.34033203 C-168.52416325 670.33727581 -170.33494993 670.33539865 -172.14573669 670.33465576 C-175.94303362 670.33004836 -179.74011898 670.31560478 -183.53735352 670.29345703 C-188.41583312 670.26515415 -193.29414603 670.25424409 -198.17269993 670.24977493 C-201.91206037 670.24562724 -205.65138678 670.23581557 -209.3907299 670.22389984 C-211.1901516 670.21818483 -212.98957661 670.21343022 -214.78900337 670.20963287 C-217.29844096 670.20279245 -219.80774377 670.18917128 -222.31713867 670.17333984 C-223.06781113 670.17222198 -223.81848358 670.17110413 -224.59190369 670.16995239 C-229.71978556 670.12689413 -229.71978556 670.12689413 -230.83447266 669.01220703 C-230.33226826 662.57753892 -229.17521994 656.41372976 -227.76025391 650.12548828 C-227.45356781 648.73385971 -227.45356781 648.73385971 -227.14068604 647.31411743 C-226.70482164 645.33723902 -226.26702134 643.36078658 -225.8274231 641.38473511 C-224.67864191 636.21859444 -223.54493468 631.04916086 -222.41259766 625.87939453 C-222.07652245 624.34601692 -222.07652245 624.34601692 -221.73365784 622.78166199 C-219.60693505 613.04072233 -217.62603415 603.2752471 -215.72436523 593.48803711 C-214.72511278 588.3644229 -213.67972689 583.26544299 -212.48291016 578.18408203 C-210.08327068 567.9423931 -208.02467108 557.62554438 -205.89697266 547.32470703 C-203.4193592 535.33305789 -200.93675344 523.3462655 -198.25076294 511.39933777 C-196.31947981 502.77713069 -194.57892066 494.11613172 -192.83178711 485.45507812 C-191.23226717 477.53811906 -189.53376036 469.67606868 -187.5246582 461.85058594 C-186.32131683 456.9018605 -185.43870131 451.89541994 -184.52197266 446.88720703 C-182.40885156 435.62183335 -179.92672135 424.47370177 -177.30712891 413.31689453 C-173.7595449 398.20672889 -170.57001143 383.02327375 -167.62133789 367.78540039 C-166.66055101 362.87883002 -165.60912104 358.02629825 -164.36181641 353.18408203 C-162.61250653 346.32743191 -161.32070877 339.40342077 -160.02197266 332.44970703 C-157.92898993 321.39796963 -155.64478714 310.40960073 -153.15771484 299.4387207 C-151.08099681 290.2355737 -149.15904134 281.00562783 -147.27197266 271.76220703 C-140.69386632 239.57934447 -140.69386632 239.57934447 -137.37231445 225.96386719 C-135.07717404 216.54047096 -133.25776404 207.03337972 -131.44024658 197.50878906 C-129.56852735 187.70562683 -127.56582832 177.9513194 -125.33642578 168.22363281 C-124.37129113 163.97159504 -123.44787925 159.71042791 -122.52197266 155.44970703 C-122.31475586 154.49733154 -122.10753906 153.54495605 -121.89404297 152.5637207 C-120.51540813 146.20685402 -119.1622857 139.84486235 -117.82058716 133.48010254 C-114.977658 119.99543921 -112.11205642 106.515378 -109.16152954 93.05380249 C-108.82377664 91.50858448 -108.48823372 89.96288142 -108.15512085 88.41665649 C-105.59521663 76.54957777 -102.70954392 64.94192507 -97.14697266 54.07470703 C-96.81101074 53.41083984 -96.47504883 52.74697266 -96.12890625 52.06298828 C-92.64420212 45.35905083 -88.65045022 38.84733337 -83.83447266 33.01220703 C-83.17447266 33.01220703 -82.51447266 33.01220703 -81.83447266 33.01220703 C-81.55861328 32.41666016 -81.28275391 31.82111328 -80.99853516 31.20751953 C-74.34993687 18.66888787 -55.13144278 9.79140735 -42.11132812 5.67333984 C-28.19209004 1.63159668 -14.4428201 0.06219991 0 0 Z M-19.83447266 65.01220703 C-20.67585101 67.34779832 -20.67585101 67.34779832 -21.32275391 70.00048828 C-21.57718262 70.98460693 -21.83161133 71.96872559 -22.09375 72.98266602 C-23.22353511 77.60346479 -24.27539052 82.23594913 -25.27197266 86.88720703 C-25.48587646 87.8760791 -25.69978027 88.86495117 -25.92016602 89.88378906 C-27.53088744 97.40607974 -28.98059438 104.95233351 -30.38500977 112.51538086 C-31.5301004 118.60887829 -32.87626412 124.62876068 -34.33911133 130.65283203 C-35.59628462 135.87427955 -36.681592 141.11615922 -37.70947266 146.38720703 C-39.28058433 154.44073812 -41.02856923 162.44570918 -42.83447266 170.44970703 C-44.68401797 178.65634459 -46.43120987 186.86457044 -47.95947266 195.13720703 C-49.2190765 201.95165742 -50.63977516 208.69346854 -52.26464844 215.4296875 C-55.4393386 228.61188786 -58.28999279 241.86988596 -60.77197266 255.19970703 C-64.05503209 272.8168234 -67.96014783 290.3077146 -72.00561523 307.76342773 C-73.90407332 316.07826127 -75.50406166 324.44570434 -77.04760742 332.83300781 C-78.18715974 338.95345202 -79.54670027 344.9644872 -81.09375 350.99414062 C-82.35435426 356.13045896 -83.33471739 361.31992969 -84.33447266 366.51220703 C-85.52565809 372.69868624 -86.75792363 378.8455091 -88.32275391 384.94970703 C-89.97749532 391.4245056 -91.27337305 397.94857163 -92.52197266 404.51220703 C-92.74691406 405.66462891 -92.97185547 406.81705078 -93.20361328 408.00439453 C-93.41566406 409.11041016 -93.62771484 410.21642578 -93.84619141 411.35595703 C-94.13175903 412.84385742 -94.13175903 412.84385742 -94.4230957 414.36181641 C-94.93672411 417.22396446 -94.93672411 417.22396446 -94.83447266 421.01220703 C-89.88447266 421.01220703 -84.93447266 421.01220703 -79.83447266 421.01220703 C-78.49058225 416.98053582 -77.4365572 413.48265485 -76.65087891 409.37939453 C-76.44527344 408.32494141 -76.23966797 407.27048828 -76.02783203 406.18408203 C-75.81964844 405.09611328 -75.61146484 404.00814453 -75.39697266 402.88720703 C-73.97620787 395.48309529 -72.40265483 388.16968976 -70.53295898 380.86572266 C-69.47644364 376.54955651 -68.68326536 372.19669662 -67.89697266 367.82470703 C-66.62444614 360.95403385 -65.20848477 354.16745228 -63.5456543 347.38061523 C-61.60396678 339.3018248 -59.99096222 331.15304014 -58.33447266 323.01220703 C-54.59281809 304.62971239 -54.59281809 304.62971239 -52.64697266 296.63720703 C-51.07678937 290.17096702 -49.74946219 283.6821761 -48.47436523 277.15332031 C-47.04610431 269.9123056 -45.45334764 262.71274931 -43.83447266 255.51220703 C-41.70590164 246.03111162 -39.69964929 236.53806059 -37.82275391 227.00439453 C-35.02404908 212.79820285 -31.99662862 198.64154698 -28.83447266 184.51220703 C-25.6061296 170.08225957 -22.58258845 155.61492457 -19.63671875 141.12486267 C-18.91289405 137.56608396 -18.18682111 134.00776713 -17.45947266 130.44970703 C-17.31330505 129.73450897 -17.16713745 129.01931091 -17.01654053 128.28244019 C-14.54460456 116.2146451 -11.89971376 104.19170574 -9.14355469 92.18579102 C-5.03704176 77.76380863 -5.03704176 77.76380863 -4.83447266 63.01220703 C-10.31178596 59.36066483 -15.60288059 59.95780539 -19.83447266 65.01220703 Z " fill="#020202" transform="translate(1475.83447265625,165.98779296875)"/>
<path d="M0 0 C27.39 0 54.78 0 83 0 C80.74585742 14.65192678 80.74585742 14.65192678 79.4140625 21.14453125 C79.27100677 21.84285568 79.12795105 22.54118011 78.9805603 23.26066589 C78.68134245 24.7168303 78.38053376 26.17266874 78.078125 27.62817383 C77.62787141 29.79865812 77.18469712 31.97050344 76.7421875 34.14257812 C75.12727828 42.00110738 73.34495058 49.79432816 71.36483765 57.56889343 C70.17917161 62.23384319 69.13809867 66.89583211 68.25 71.625 C66.28902377 81.70898687 64.18188232 91.7608853 62.0625 101.8125 C61.88593872 102.6503302 61.70937744 103.4881604 61.52746582 104.35137939 C59.36582776 114.60273925 57.17838903 124.84773299 54.93383789 135.08129883 C52.7195143 145.21295152 50.60227509 155.36507996 48.47225952 165.51470947 C46.26201733 176.04394867 44.02468076 186.56604362 41.72045898 197.07519531 C40.28824484 203.62418293 38.91742905 210.18462669 37.5625 216.75 C35.53186022 226.58757211 33.36508847 236.39102933 31.16479492 246.19189453 C29.4659017 253.79761578 27.89133178 261.41896664 26.39819336 269.06738281 C25.37867468 274.24201121 24.23777541 279.37344206 23 284.5 C21.14739252 292.18125794 19.58611834 299.90468753 18.05859375 307.65625 C14.98946679 323.21802052 11.63900454 338.71532665 8.16503906 354.19116211 C6.46673234 361.79344653 4.89270312 369.41136555 3.40039062 377.05639648 C2.22179637 383.0387486 0.86580208 388.96512833 -0.56420898 394.8918457 C-1.99857978 400.87422145 -3.21801741 406.88640281 -4.38671875 412.92578125 C-4.86206266 415.30855613 -5.3796661 417.65200722 -6 420 C1.52641028 419.95760043 1.52641028 419.95760043 8.0625 416.6875 C11.47370413 411.95582975 12.65914144 407.54246529 13.76953125 401.8515625 C14.01140419 400.65052132 14.01140419 400.65052132 14.25816345 399.42521667 C14.6025872 397.71304168 14.94455965 396.00037207 15.28430176 394.28726196 C16.16843045 389.83101431 17.07063698 385.37843638 17.97265625 380.92578125 C18.14896576 380.05372543 18.32527527 379.18166962 18.50692749 378.28318787 C19.82897811 371.77095193 21.24080753 365.28411164 22.75 358.8125 C24.65409245 350.62607061 26.35254353 342.41410684 27.9765625 334.16796875 C31.028243 318.6864902 34.37152587 303.2730465 37.83496094 287.87915039 C39.58366892 280.04220132 41.14512632 272.18628662 42.60180664 264.29052734 C43.72386901 258.27150179 45.05330872 252.32863207 46.50048828 246.38037109 C47.81070976 240.94608981 48.92884136 235.48602683 50 230 C51.21154448 223.79970818 52.51496918 217.64058795 54 211.5 C55.56631252 204.99649605 56.93465894 198.47331772 58.22094727 191.90917969 C60.04214088 182.67171437 61.99164957 173.46182798 63.9375 164.25 C64.11306427 163.41867554 64.28862854 162.58735107 64.46951294 161.73083496 C64.64465424 160.90152466 64.81979553 160.07221436 65.00024414 159.21777344 C65.34912523 157.56575608 65.69800222 155.91373786 66.046875 154.26171875 C66.2170665 153.45602448 66.387258 152.6503302 66.56260681 151.82022095 C67.72484854 146.31444132 68.87648278 140.80655204 70.01660156 135.29614258 C70.23799805 134.22904053 70.45939453 133.16193848 70.6875 132.0625 C70.9396225 130.84657921 70.9396225 130.84657921 71.19683838 129.60609436 C72.53550992 123.17269651 73.92095741 116.75074403 75.328125 110.33203125 C77.10745675 102.18071023 78.84357934 94.02154178 80.53515625 85.8515625 C80.74355637 84.84526291 80.95195648 83.83896332 81.16667175 82.8021698 C82.01299056 78.71075387 82.85781818 74.61903455 83.70043945 70.52685547 C85.90163713 59.84544047 88.13792639 49.18423936 90.67956543 38.57809448 C91.93678181 33.32396285 93.04946799 28.05592552 94.0625 22.75 C95.52928635 15.11502475 97.24931579 7.58629825 99 0 C126.39 0 153.78 0 182 0 C180.8729535 9.01637197 180.8729535 9.01637197 180.23828125 12.20703125 C180.09205322 12.9441333 179.9458252 13.68123535 179.79516602 14.44067383 C179.63588623 15.22337646 179.47660645 16.0060791 179.3125 16.8125 C179.14097412 17.66287842 178.96944824 18.51325684 178.79272461 19.3894043 C176.5899446 30.18177421 174.15132407 40.92285593 171.74365234 51.67089844 C168.83153515 64.70754652 166.021721 77.75713287 163.44873047 90.86499023 C162.26958972 96.81007272 160.91784215 102.69897012 159.49536133 108.58984375 C158.04725998 114.64924502 156.83348412 120.74366178 155.640625 126.85766602 C154.2169156 134.07956884 152.62004866 141.25738389 151 148.4375 C149.21090846 156.37434976 147.51818457 164.30781715 146.0625 172.3125 C144.48324507 180.96266466 142.52874929 189.50773931 140.5 198.0625 C137.9443184 208.84142064 135.59710197 219.62807101 133.49023438 230.50244141 C130.58594641 245.29868937 127.36531306 260.03053578 124.05517578 274.74047852 C122.79883438 280.3354817 121.59682983 285.93372736 120.48950195 291.56005859 C119.6133088 295.92747723 118.6441393 300.27463233 117.6875 304.625 C115.92978566 312.65691378 114.22340694 320.69754337 112.5625 328.75 C110.05749677 340.85983875 107.39387776 352.93151932 104.66699219 364.99316406 C104.07654379 367.65493655 103.51800636 370.32011262 102.9765625 372.9921875 C100.45438261 385.13542443 96.01187994 398.01602062 87 407 C86.34 407 85.68 407 85 407 C84.76152344 407.58910156 84.52304688 408.17820312 84.27734375 408.78515625 C80.12727257 415.98115123 69.51801656 420.28550817 62 423 C61.01 423 60.02 423 59 423 C59 423.66 59 424.32 59 425 C59.66 425.185625 60.32 425.37125 61 425.5625 C68.81737484 429.30832544 75.18100207 436.03462728 78.15625 444.15625 C85.05681807 466.04090874 79.31802957 485.93699044 74.64498901 507.75817871 C73.41332972 513.51063274 72.19185457 519.2652534 70.96875 525.01953125 C70.71915024 526.19252777 70.46955048 527.36552429 70.21238708 528.57406616 C67.75590447 540.1261736 65.34133223 551.68683933 62.9375 563.25 C62.52824967 565.21720601 62.1189886 567.18440979 61.7097168 569.15161133 C60.47231051 575.10090098 59.23610301 581.05043945 58 587 C55.03856316 601.25269649 52.0739945 615.50472095 49.09570312 629.75390625 C48.39968491 633.08422124 47.70553256 636.41491265 47.01367188 639.74609375 C46.18211946 643.74874418 45.34192576 647.74951879 44.5 651.75 C44.26893555 652.86793945 44.03787109 653.98587891 43.79980469 655.13769531 C43.58743164 656.13897461 43.37505859 657.14025391 43.15625 658.171875 C42.97900391 659.0184668 42.80175781 659.86505859 42.61914062 660.73730469 C41.99357342 663.0234864 41.08551338 664.90127188 40 667 C29.58657075 667.02312359 19.17314756 667.04091517 8.75969791 667.05181217 C3.92483173 667.05704097 -0.91001694 667.06413854 -5.74487305 667.07543945 C-10.4067712 667.08626847 -15.06865246 667.09227686 -19.73056221 667.09487724 C-21.51324288 667.09673147 -23.29592259 667.10035203 -25.07859612 667.10573006 C-27.5666596 667.11294069 -30.05465243 667.11399093 -32.54272461 667.11352539 C-33.28718842 667.11712067 -34.03165222 667.12071594 -34.79867554 667.12442017 C-39.88594784 667.11405216 -39.88594784 667.11405216 -41 666 C-41.60234455 658.94850232 -39.76872465 652.21079633 -38.296875 645.3515625 C-38.01443617 644.01235514 -37.73256631 642.67302767 -37.45123291 641.33358765 C-36.86026048 638.52697049 -36.26474819 635.72137142 -35.66552734 632.91650391 C-34.90860863 629.37333869 -34.15936066 625.82861305 -33.41308022 622.28319359 C-30.66918566 609.25110556 -27.87960735 596.23609327 -24.76953125 583.28564453 C-23.74723945 578.92079586 -22.90890267 574.53775018 -22.125 570.125 C-20.38775905 560.68498219 -18.32856843 551.33123362 -16.21801758 541.96850586 C-14.48283503 534.24586903 -12.84800161 526.51172181 -11.33691406 518.7421875 C-10.63980273 515.16298901 -9.92343449 511.59705435 -9.08984375 508.046875 C-7.40906146 500.82341993 -6.69910154 494.42216197 -7 487 C-11.29 486.34 -15.58 485.68 -20 485 C-20.28230469 486.74796875 -20.56460937 488.4959375 -20.85546875 490.296875 C-21.85962527 496.31652447 -23.04271181 502.28154075 -24.3125 508.25 C-24.75790598 510.36456365 -25.20321581 512.47914754 -25.6484375 514.59375 C-25.87370117 515.65980469 -26.09896484 516.72585938 -26.33105469 517.82421875 C-26.96849451 520.85042942 -27.59921048 523.87793363 -28.2265625 526.90625 C-30.46200612 537.69705053 -32.74179114 548.47720117 -35.0625 559.25 C-36.71971164 566.94844956 -38.35492926 574.6482546 -39.875 582.375 C-42.08790972 593.61877993 -44.47675017 604.82560522 -46.85351562 616.03564453 C-48.61005359 624.33120914 -50.33882937 632.63086586 -52.00390625 640.9453125 C-52.32243295 642.52719646 -52.64103496 644.10906526 -52.9597168 645.69091797 C-53.41593642 647.95635692 -53.86953393 650.22215018 -54.31460571 652.48980713 C-54.72138388 654.56229055 -55.13713877 656.63278928 -55.5546875 658.703125 C-55.78655762 659.87520508 -56.01842773 661.04728516 -56.25732422 662.25488281 C-57 665 -57 665 -59 667 C-62.04742432 667.24723816 -62.04742432 667.24723816 -66.01660156 667.24291992 C-67.0998597 667.24576744 -67.0998597 667.24576744 -68.20500183 667.24867249 C-70.60031888 667.25238677 -72.99533472 667.24166285 -75.390625 667.23046875 C-77.05491093 667.22927667 -78.71919755 667.22882385 -80.38348389 667.2290802 C-83.87728062 667.22751395 -87.3709751 667.2192167 -90.86474609 667.20581055 C-95.33468526 667.1888732 -99.80451142 667.1849947 -104.27447891 667.18575573 C-107.7146512 667.18548313 -111.15479897 667.17998655 -114.59496307 667.17275429 C-116.24232548 667.1695795 -117.88969067 667.167603 -119.53705597 667.16686058 C-121.84669162 667.16468137 -124.15621005 667.15590175 -126.46582031 667.14526367 C-127.77883118 667.14145187 -129.09184204 667.13764008 -130.44464111 667.13371277 C-133.72308686 667.01041437 -136.78342932 666.62436185 -140 666 C-139.70656731 658.38542158 -138.47349919 651.20604316 -136.65112305 643.82861328 C-135.31111859 638.38882621 -134.13967862 632.93520149 -133.0625 627.4375 C-128.34394964 603.46140955 -123.16898517 579.57730314 -117.98046875 555.69921875 C-117.27835845 552.46620817 -116.57658856 549.23312384 -115.875 546 C-115.70161102 545.20135529 -115.52822205 544.40271057 -115.34957886 543.5798645 C-113.24487964 533.87718997 -111.19672761 524.16895624 -109.29638672 514.42382812 C-108.31150775 509.41910239 -107.19485981 504.45855375 -106 499.5 C-104.43426419 492.99634736 -103.06534615 486.4733437 -101.77905273 479.90917969 C-99.95785912 470.67171437 -98.00835043 461.46182798 -96.0625 452.25 C-95.88693573 451.41867554 -95.71137146 450.58735107 -95.53048706 449.73083496 C-95.26777512 448.48686951 -95.26777512 448.48686951 -94.99975586 447.21777344 C-94.65087477 445.56575608 -94.30199778 443.91373786 -93.953125 442.26171875 C-93.7829335 441.45602448 -93.612742 440.6503302 -93.43739319 439.82022095 C-92.04777992 433.23733529 -90.67720036 426.65059375 -89.3125 420.0625 C-87.62010001 411.90543697 -85.86767604 403.76305138 -84.08520508 395.62524414 C-81.66873473 384.5521514 -79.35114513 373.45814308 -77.0300293 362.36474609 C-75.24264055 353.83392933 -73.41950064 345.31197332 -71.55859375 336.796875 C-69.19603093 325.97683182 -66.93294925 315.1375505 -64.69146729 304.29187012 C-61.53640224 289.03305091 -58.34486064 273.78805669 -54.91088867 258.58935547 C-53.28898107 251.38881151 -51.81014234 244.16867911 -50.39697266 236.92456055 C-49.38261542 231.77168936 -48.23947166 226.6655716 -47 221.5625 C-45.46492087 215.24096928 -44.18419312 208.89626185 -43 202.5 C-41.81580444 196.10372496 -40.53488869 189.75908403 -39 183.4375 C-37.5501247 177.46108161 -36.25145548 171.47135998 -35.0625 165.4375 C-34.89862793 164.60605469 -34.73475586 163.77460938 -34.56591797 162.91796875 C-34.39850098 162.06847656 -34.23108398 161.21898437 -34.05859375 160.34375 C-31.22096922 145.95579465 -28.15608391 131.61967681 -24.9375 117.3125 C-23.17589025 109.47938162 -21.50760138 101.64764709 -20.0625 93.75 C-18.44077979 84.90433277 -16.50069316 76.14086971 -14.5 67.375 C-14.26934341 66.36438004 -14.26934341 66.36438004 -14.0340271 65.33334351 C-13.88124298 64.66412872 -13.72845886 63.99491394 -13.57104492 63.30541992 C-11.45632448 54.04238648 -9.42542267 44.76809322 -7.5078125 35.46240234 C-6.6913043 31.50312267 -5.86723597 27.54541885 -5.04345703 23.58764648 C-4.61126762 21.51051701 -4.17989627 19.43321708 -3.74951172 17.35571289 C-3.55115723 16.40043701 -3.35280273 15.44516113 -3.1484375 14.4609375 C-2.97489746 13.62353027 -2.80135742 12.78612305 -2.62255859 11.92333984 C-1.77493058 7.9431446 -0.88278776 3.97254492 0 0 Z " fill="#020202" transform="translate(1719,169)"/>
<path d="M0 0 C49.17 0 98.34 0 149 0 C149 8.92079208 149 8.92079208 147.625 13.25 C146.20104486 18.08745509 145.30641792 22.85497062 144.52734375 27.83203125 C143.04843948 36.71641173 140.95113759 45.48037783 138.6484375 54.18359375 C137.90400243 57.4169533 137.4692291 60.71539628 137 64 C125.78 64 114.56 64 103 64 C102.34 68.29 101.68 72.58 101 77 C100.58206005 79.21211627 100.14467581 81.42089318 99.66796875 83.62109375 C99.42925049 84.73009033 99.19053223 85.83908691 98.94458008 86.98168945 C98.69474365 88.12210693 98.44490723 89.26252441 98.1875 90.4375 C97.79437622 92.25350708 97.79437622 92.25350708 97.39331055 94.10620117 C95.5470268 102.59955305 93.63037787 111.0759154 91.68432617 119.546875 C90.28431894 125.66672827 89.01356368 131.80256814 87.8125 137.96484375 C86.5833626 144.17294786 85.19121863 150.3473315 83.8359375 156.52880859 C82.66996447 161.86436439 81.54480341 167.20194613 80.5 172.5625 C79.28832751 178.73789898 77.90961968 184.86693607 76.5 191 C74.81737465 198.32261672 73.22358936 205.64513538 71.78930664 213.02075195 C70.95149054 217.28276786 70.0560405 221.53195454 69.15625 225.78125 C68.79929317 227.47157622 68.44244388 229.16192515 68.08569336 230.85229492 C67.90497284 231.7083432 67.72425232 232.56439148 67.53805542 233.44638062 C66.69909006 237.42812325 65.86733917 241.41136674 65.03515625 245.39453125 C64.37826316 248.53399243 63.7206068 251.67329303 63.0625 254.8125 C62.80246185 256.0531572 62.80246185 256.0531572 62.53717041 257.31887817 C60.5659672 266.71207133 58.56045836 276.09137141 56.375 285.4375 C54.02010968 295.52718438 52.07017254 305.69090634 50.14208984 315.86889648 C47.924692 327.56000884 45.43561813 339.17327863 42.75488281 350.76635742 C38.67247358 368.47752653 35.03874278 386.27304987 31.46459961 404.09301758 C27.86412022 421.99188805 27.86412022 421.99188805 25.5859375 430.72729492 C24.81065664 433.73441554 24.20423217 436.76212797 23.625 439.8125 C21.7544673 449.38175149 19.64685865 458.89782128 17.5625 468.42236328 C16.8662182 471.61305043 16.18136604 474.80609667 15.5 478 C14.61530247 482.14701966 13.71900379 486.29129635 12.8125 490.43359375 C10.73095077 499.95103872 8.68259951 509.46673808 6.80859375 519.02734375 C6.00064746 523.06917649 5.10503985 527.09066737 4.21459961 531.11499023 C2.27896471 539.86411793 0.48396127 548.61081045 -1.0625 557.4375 C-2.37579661 564.91766602 -4.00190687 572.18443249 -5.9296875 579.53125 C-7.66049956 586.45449823 -8.87374534 593.49846136 -10.16186523 600.51464844 C-11.31827608 606.74257655 -12.68561611 612.86057901 -14.26147461 618.99511719 C-15.5226871 624.12668853 -16.50109199 629.31212294 -17.5 634.5 C-18.91806805 641.86480505 -20.47571085 649.14707645 -22.37060547 656.40551758 C-22.92049899 658.67228193 -23.32580652 660.87680123 -23.625 663.1875 C-24 666 -24 666 -25 667 C-27.55589888 667.09506052 -30.08467972 667.12556761 -32.64086914 667.11352539 C-33.84077736 667.11374443 -33.84077736 667.11374443 -35.06492615 667.1139679 C-37.72169665 667.11326855 -40.37839793 667.10547518 -43.03515625 667.09765625 C-44.87218691 667.09579215 -46.70921806 667.09436821 -48.54624939 667.09336853 C-53.39109662 667.08954275 -58.23591408 667.07971196 -63.08074951 667.06866455 C-68.02062578 667.05845172 -72.96050685 667.05387119 -77.90039062 667.04882812 C-87.60027353 667.03808974 -97.30013429 667.0210126 -107 667 C-107.98163634 663.53932366 -107.85453412 661.76146194 -106.75 658.3125 C-105.34942248 653.54039649 -104.37339397 648.77608109 -103.5625 643.875 C-102.59288379 638.08814538 -101.44984002 632.3887049 -100.0625 626.6875 C-98.643678 620.83368915 -97.34990772 614.97268386 -96.1875 609.0625 C-91.70791774 586.29722164 -87.09210676 563.55037268 -81.82421875 540.953125 C-79.2282821 529.75986004 -76.92290339 518.54562263 -74.80493164 507.25195312 C-73.46480858 500.18747728 -71.86243368 493.28213626 -70.03515625 486.328125 C-68.31619412 479.45227647 -67.11731474 472.45244381 -65.83789062 465.484375 C-64.67715057 459.23246814 -63.30600293 453.0887657 -61.7253418 446.93017578 C-60.54780676 442.17326714 -59.62117355 437.37216552 -58.6875 432.5625 C-58.25599179 430.37614731 -57.82366529 428.189956 -57.390625 426.00390625 C-57.16568359 424.86711426 -56.94074219 423.73032227 -56.70898438 422.55908203 C-53.80412431 407.97676455 -50.88838315 393.39281703 -47.39160156 378.93945312 C-46.20234684 373.98136438 -45.16968783 369.00297134 -44.1875 364 C-42.49555386 355.38368817 -40.7176446 346.78715172 -38.90151978 338.19628906 C-38.59661271 336.75310907 -38.29253067 335.30975447 -37.98934937 333.86621094 C-36.35099089 326.06993929 -34.60289443 318.32156202 -32.63208008 310.60107422 C-31.78204581 307.10309621 -31.19009639 303.6182039 -30.625 300.0625 C-29.55745813 293.6536078 -28.18170972 287.36944606 -26.625 281.0625 C-24.35233777 271.84252662 -22.49943237 262.57233945 -20.78759766 253.23266602 C-19.645404 247.06955925 -18.28497653 241.01649538 -16.72753906 234.94555664 C-15.54631337 230.16317812 -14.62249987 225.33545484 -13.6875 220.5 C-9.81938884 200.85445852 -5.5558896 181.29878182 -1.08984375 161.78125 C1.26909166 151.4596377 3.39235955 141.11396432 5.25390625 130.69140625 C5.98867916 127.0560115 6.9666929 123.56009854 8 120 C8.3206339 118.42227766 8.61378061 116.8386404 8.875 115.25 C10.2049718 107.64422374 11.85060143 100.10726745 13.45898438 92.55664062 C14.00602588 89.97152392 14.543475 87.38458098 15.078125 84.796875 C15.25359863 83.95125 15.42907227 83.105625 15.60986328 82.234375 C15.94348603 80.6253963 16.27530832 79.0160428 16.60498047 77.40625 C16.75854004 76.66890625 16.91209961 75.9315625 17.0703125 75.171875 C17.20195801 74.5334668 17.33360352 73.89505859 17.46923828 73.23730469 C18.20616712 70.13094963 19.12293345 67.06973291 20 64 C9.11 64 -1.78 64 -13 64 C-12.07476803 56.59814425 -10.78135509 49.42773972 -9.3125 42.125 C-8.96541992 40.35962891 -8.96541992 40.35962891 -8.61132812 38.55859375 C-6.02388591 25.62813842 -2.96948572 12.86777144 0 0 Z " fill="#030303" transform="translate(903,169)"/>
<path d="M0 0 C1.13072182 0.00539291 1.13072182 0.00539291 2.2842865 0.01089478 C3.46956436 0.01067574 3.46956436 0.01067574 4.67878723 0.01045227 C7.30309245 0.0111516 9.92732759 0.01894489 12.55162048 0.02676392 C14.36623089 0.02862803 16.18084179 0.03005196 17.99545288 0.03105164 C22.78111653 0.03487737 27.56675003 0.04470813 32.35240173 0.05575562 C37.23195488 0.06596854 42.11151287 0.070549 46.99107361 0.07559204 C56.57246709 0.08633035 66.15383816 0.10340744 75.73521423 0.12442017 C75.42938369 2.67036366 75.12023003 5.21583115 74.80918884 7.76113892 C74.72371544 8.47556152 74.63824203 9.18998413 74.55017853 9.92605591 C73.83322104 15.75946854 72.70307166 21.41727821 71.29771423 27.12442017 C69.77639142 33.54192884 68.32847358 39.94311976 67.17271423 46.43692017 C66.20396905 51.79767301 65.07718955 57.08212844 63.79771423 62.37442017 C62.35592523 68.35222051 61.04865189 74.3410959 59.86021423 80.37442017 C52.6637161 116.86861345 52.6637161 116.86861345 49.67271423 128.31192017 C47.57496504 136.34455145 46.07201523 144.47749383 44.57286072 152.64077759 C43.60714402 157.84321259 42.55591393 162.98297686 41.23912048 168.10879517 C39.62311271 174.39962736 38.41073583 180.73868348 37.23521423 187.12442017 C35.87280758 194.52536471 34.34344046 201.81695281 32.47154236 209.10586548 C31.18896742 214.3637423 30.2241963 219.67993731 29.23521423 224.99942017 C28.80002873 227.29778918 28.36384079 229.59596862 27.92662048 231.89395142 C27.61748718 233.51937866 27.61748718 233.51937866 27.30210876 235.17764282 C25.84215973 242.76661133 24.18051849 250.30004147 22.35874939 257.81045532 C20.43576102 265.77174019 18.81211874 273.76274845 17.29771423 281.81192017 C15.23601943 292.75567464 12.86735817 303.5974724 10.35142517 314.44424438 C5.48442811 335.61298199 1.24862802 356.92595046 -3.09877014 378.20596313 C-8.12241276 402.78971404 -8.12241276 402.78971404 -10.32728577 411.87442017 C-12.26742814 419.88559139 -13.86633738 427.95422482 -15.42713928 436.04727173 C-16.63316904 442.23321385 -18.0383351 448.33192175 -19.59754944 454.43814087 C-20.41025927 457.71009342 -21.05155641 460.99262594 -21.63978577 464.31192017 C-21.89241439 465.69757038 -22.14641463 467.08297095 -22.40150452 468.46817017 C-22.53862854 469.21324829 -22.67575256 469.95832642 -22.81703186 470.72598267 C-26.41892711 490.01988612 -30.62169079 509.19037655 -34.79800415 528.36581421 C-36.10255823 534.36167185 -37.38298455 540.36235913 -38.65760803 546.36465454 C-40.75690987 556.24866319 -42.94631635 566.10201345 -45.26478577 575.93692017 C-48.14655392 588.19318322 -50.53670247 600.52042175 -52.87025452 612.89004517 C-54.22059423 619.99419237 -55.71900266 627.06053356 -57.26478577 634.12442017 C-57.51784485 635.29005493 -57.77090393 636.4556897 -58.03163147 637.65664673 C-58.79128667 641.14715013 -59.55840401 644.63593874 -60.32728577 648.12442017 C-60.71110413 649.88592407 -60.71110413 649.88592407 -61.10267639 651.68301392 C-61.35339905 652.81867798 -61.6041217 653.95434204 -61.86244202 655.12442017 C-62.08424133 656.13504517 -62.30604065 657.14567017 -62.53456116 658.18692017 C-63.29120788 661.23070931 -64.25860495 664.15508881 -65.26478577 667.12442017 C-75.67821502 667.14754376 -86.0916382 667.16533534 -96.50508785 667.17623234 C-101.33995403 667.18146113 -106.17480271 667.18855871 -111.00965881 667.19985962 C-115.67155696 667.21068863 -120.33343823 667.21669703 -124.99534798 667.21929741 C-126.77802865 667.22115163 -128.56070836 667.22477219 -130.34338188 667.23015022 C-132.83144537 667.23736085 -135.3194382 667.2384111 -137.80751038 667.23794556 C-138.55197418 667.24154083 -139.29643799 667.24513611 -140.0634613 667.24884033 C-145.15073361 667.23847233 -145.15073361 667.23847233 -146.26478577 666.12442017 C-146.88846759 658.89332651 -145.11392371 652.17625178 -143.44490051 645.18841553 C-142.6126269 641.70129118 -141.80937426 638.20746633 -141.00306702 634.71426392 C-140.84616394 634.0376622 -140.68926086 633.36106049 -140.52760315 632.66395569 C-139.181781 626.83510909 -138.05335819 620.99687348 -136.99916077 615.10879517 C-134.66945609 602.22135371 -131.86744329 589.40854777 -128.76478577 576.68692017 C-126.71321191 568.25842402 -124.95421652 559.79415744 -123.28260803 551.28286743 C-121.49698866 542.21385515 -119.61933039 533.16639599 -117.70228577 524.12442017 C-117.47442383 523.04866226 -117.47442383 523.04866226 -117.24195862 521.95117188 C-115.62738613 514.34194334 -113.9858502 506.74400506 -112.13978577 499.18692017 C-110.16498848 491.03346529 -108.62272955 482.80545875 -107.10218811 474.55630493 C-105.94541726 468.35454215 -104.57140983 462.2637938 -103.00331116 456.15396118 C-101.72063421 450.89222954 -100.7544585 445.57261792 -99.76478577 440.24942017 C-99.32960026 437.95105116 -98.89341232 435.65287171 -98.45619202 433.35488892 C-98.25010315 432.27127075 -98.04401428 431.18765259 -97.8316803 430.07119751 C-96.37155571 422.48131646 -94.70923679 414.94714806 -92.88783264 407.43569946 C-90.64904798 398.16998433 -88.81783955 388.84996286 -87.10316467 379.47305298 C-86.17169189 374.46475494 -85.15643562 369.54716434 -83.76869202 364.64395142 C-82.04764057 358.55906012 -80.90043556 352.40368693 -79.76478577 346.18692017 C-78.40461443 338.76740489 -76.87933652 331.45969479 -75.00111389 324.15396118 C-73.44307216 317.74357 -72.3444291 311.23499998 -71.15931702 304.74746704 C-70.01130106 298.60155995 -68.63186027 292.61698656 -66.92982483 286.60171509 C-66.01335436 283.18782896 -65.44367636 279.80430827 -64.88978577 276.31192017 C-63.61040534 268.6020627 -61.943125 261.00901025 -60.15394592 253.40249634 C-58.5002332 246.33403668 -57.06694721 239.23101654 -55.65962219 232.10977173 C-45.88367185 182.9534705 -45.88367185 182.9534705 -40.20228577 159.43692017 C-38.41580645 152.02775136 -36.93793335 144.56931001 -35.46937561 137.09146118 C-33.18959248 125.57491754 -30.70853955 114.10287156 -28.23506165 102.62667847 C-25.75446803 91.11540194 -23.31233128 79.59855023 -20.95228577 68.06192017 C-19.46718197 60.80672494 -17.94944168 53.57129067 -16.20228577 46.37442017 C-14.26214339 38.36324895 -12.66323416 30.29461551 -11.10243225 22.2015686 C-6.77660757 0.01364076 -6.77660757 0.01364076 0 0 Z " fill="#030303" transform="translate(804.2647857666016,168.87557983398438)"/>
<path d="M0 0 C27.06 0 54.12 0 82 0 C80.87585447 7.86901874 80.87585447 7.86901874 80.0546875 11.73828125 C79.8683374 12.62378662 79.6819873 13.50929199 79.48999023 14.42163086 C79.18557007 15.85261108 79.18557007 15.85261108 78.875 17.3125 C78.42522283 19.44519481 77.9760402 21.57801506 77.52734375 23.7109375 C77.2835498 24.86948242 77.03975586 26.02802734 76.78857422 27.22167969 C75.93213334 31.32517164 75.09094632 35.43157936 74.25390625 39.5390625 C68.92071866 65.68638835 68.92071866 65.68638835 66.8125 74.375 C65.01831907 81.77219509 63.52589655 89.2095013 62.0546875 96.67578125 C58.79142392 113.22169086 55.21816278 129.70257327 51.58666992 146.17089844 C48.54090857 160.00288347 45.62602415 173.86030185 42.81640625 187.7421875 C42.63166245 188.65387192 42.44691864 189.56555634 42.25657654 190.50486755 C41.12675281 196.08217496 41.12675281 196.08217496 40.00268555 201.66064453 C37.98461164 211.69375748 35.88037274 221.68713769 33.46484375 231.6328125 C31.23061867 240.83382419 29.33489014 250.07538377 27.52038574 259.36688232 C26.58786243 264.08538903 25.60999085 268.79447854 24.6328125 273.50390625 C24.43005707 274.48110123 24.22730164 275.4582962 24.0184021 276.46510315 C23.38825307 279.49777463 22.75677487 282.53016683 22.125 285.5625 C21.7973465 287.13748764 21.7973465 287.13748764 21.46307373 288.74429321 C18.7085519 301.97643275 15.8884764 315.1878586 12.90454102 328.37036133 C11.30738952 335.47205286 9.91631403 342.59398859 8.60351562 349.75292969 C7.02465132 358.19378117 5.09265353 366.55070792 3.1697998 374.918396 C0.59554859 386.13930548 -1.71898698 397.39410365 -3.93652344 408.69067383 C-5.35200485 415.86693539 -6.87334819 422.99405228 -8.60668945 430.09960938 C-10.032103 435.98728334 -11.19997333 441.91523341 -12.35986328 447.86010742 C-13.7833932 455.08119926 -15.3801663 462.25818724 -17 469.4375 C-19.04261154 478.50079378 -20.91630231 487.57252104 -22.6015625 496.70849609 C-23.7252109 502.73523109 -25.05843017 508.68512636 -26.50488281 514.64160156 C-27.76195587 519.86272637 -28.84718386 525.10428303 -29.875 530.375 C-31.44611167 538.42853109 -33.19409658 546.43350214 -35 554.4375 C-37.04261154 563.50079378 -38.91630231 572.57252104 -40.6015625 581.70849609 C-41.72479175 587.73298297 -43.05839881 593.68039584 -44.50268555 599.63500977 C-45.77424902 604.92131969 -46.8864061 610.22819844 -47.9375 615.5625 C-48.09992188 616.38669434 -48.26234375 617.21088867 -48.4296875 618.06005859 C-48.67912109 619.3258374 -48.67912109 619.3258374 -48.93359375 620.6171875 C-50.08998083 626.48071183 -51.28832193 632.3351742 -52.5 638.1875 C-52.68941162 639.11183838 -52.87882324 640.03617676 -53.07397461 640.98852539 C-54.31756643 646.9781016 -55.67571541 652.93540394 -57.08398438 658.88793945 C-57.268703 659.67075539 -57.45342163 660.45357132 -57.64373779 661.26010895 C-58.09531716 663.17352594 -58.54758765 665.08677979 -59 667 C-68.65788658 667.02320886 -78.31576349 667.04095859 -87.97367191 667.05181217 C-92.45861359 667.05702233 -96.94353613 667.06408598 -101.4284668 667.07543945 C-105.75971603 667.0863348 -110.0909469 667.0922909 -114.42220879 667.09487724 C-116.07154059 667.09671953 -117.72087144 667.100317 -119.37019539 667.10573006 C-121.68700427 667.11302878 -124.00373804 667.11398723 -126.32055664 667.11352539 C-128.29579063 667.11685631 -128.29579063 667.11685631 -130.31092834 667.12025452 C-133.97576161 667.00079011 -137.38767006 666.58957409 -141 666 C-139.54456533 655.44897684 -137.42046499 645.09541606 -135.1875 634.6875 C-134.82530436 632.98665298 -134.46349186 631.28572433 -134.10205078 629.5847168 C-133.56335336 627.04983303 -133.02439682 624.51500796 -132.48400879 621.98048401 C-131.08766791 615.42991827 -129.72633442 608.87249104 -128.375 602.3125 C-126.70365581 594.23166578 -124.93356691 586.17615371 -123.125 578.125 C-120.78726666 567.70877041 -118.57969275 557.270281 -116.4375 546.8125 C-116.28864349 546.08596222 -116.13978699 545.35942444 -115.98641968 544.61087036 C-115.25675832 541.04744832 -114.52839531 537.48376246 -113.80078125 533.91992188 C-110.73977444 518.93009863 -107.56893515 503.97230863 -104.22583008 489.04272461 C-102.42244839 480.96636059 -100.70593767 472.87565361 -99.03735352 464.77050781 C-96.90106142 454.4334476 -94.64911258 444.12192284 -92.40643311 433.80755615 C-90.28184818 424.02864807 -88.21008543 414.24541969 -86.29663086 404.42260742 C-85.31623825 399.43743963 -84.19676858 394.49988752 -83 389.5625 C-81.51784061 383.44626543 -80.26656973 377.31357112 -79.125 371.125 C-77.37987751 361.67635797 -75.32457986 352.31240126 -73.21142578 342.93994141 C-71.72108136 336.30814382 -70.29990498 329.67165215 -69 323 C-67.47145922 315.15489399 -65.75789033 307.35926066 -64 299.5625 C-62.15059315 291.35582902 -60.40326377 283.14764193 -58.875 274.875 C-57.61539615 268.06054961 -56.1946975 261.31873849 -54.56982422 254.58251953 C-51.13066846 240.30218412 -48.13057837 225.93582357 -45.44921875 211.49536133 C-44.43619814 206.10500921 -43.29135988 200.76772731 -42 195.4375 C-40.62284478 189.74988198 -39.37461789 184.05543572 -38.25 178.3125 C-36.29159168 168.33654184 -34.21824965 158.38587088 -32.125 148.4375 C-31.95038239 147.60735382 -31.77576477 146.77720764 -31.59585571 145.92190552 C-29.21485128 134.61662291 -26.75730255 123.3314821 -24.21923828 112.06030273 C-22.04369242 102.33645004 -20.04451903 92.5793919 -18.05499268 82.81622314 C-15.83846231 71.94725692 -13.50034139 61.11202101 -11.06079102 50.29052734 C-9.79852908 44.66923152 -8.58013898 39.04583722 -7.47900391 33.390625 C-5.27413016 22.12966475 -2.67104165 11.21837493 0 0 Z " fill="#020202" transform="translate(1603,169)"/>
</svg>
